<svg width="78" height="40" viewBox="0 0 74 23" fill="none" xmlns="http://www.w3.org/2000/svg">
    <g style="mix-blend-mode:luminosity">
        <path fill-rule="evenodd" clip-rule="evenodd"
            d="M45.7854 17.3523C41.5056 20.5362 35.4425 22.1282 30.0928 22.1282C22.6031 22.1282 16.0051 19.4749 11.012 14.8758C10.6553 14.5221 11.012 13.9914 11.3686 14.3452C16.8967 17.5291 23.4947 19.298 30.4494 19.298C35.0859 19.298 40.2573 18.4136 45.0721 16.2909C45.7854 15.9372 46.3204 16.8216 45.7854 17.3523Z"
            fill="#F7981D" />
        <path fill-rule="evenodd" clip-rule="evenodd"
            d="M45.7854 17.3523C41.5056 20.5362 35.4425 22.1282 30.0928 22.1282C22.6031 22.1282 16.0051 19.4749 11.012 14.8758C10.6553 14.5221 11.012 13.9914 11.3686 14.3452C16.8967 17.5291 23.4947 19.298 30.4494 19.298C35.0859 19.298 40.2573 18.4136 45.0721 16.2909C45.7854 15.9372 46.3204 16.8216 45.7854 17.3523Z"
            fill="#F7981D" />
        <path fill-rule="evenodd" clip-rule="evenodd"
            d="M45.7855 16.2901C41.5057 19.2972 35.4426 20.8891 30.2712 20.8891C23.3165 20.8891 17.0751 18.4127 12.2604 14.5212C12.082 14.3443 11.7254 14.3443 11.5471 14.1674C11.0121 13.8137 10.6554 14.3443 11.1904 14.6981C16.1835 19.2972 22.9599 21.9504 30.2712 21.9504C35.621 21.9504 41.684 20.3585 45.9638 17.1745C46.1421 16.9976 46.1421 16.467 45.7855 16.2901Z"
            fill="#E86E00" />
        <path fill-rule="evenodd" clip-rule="evenodd"
            d="M47.3873 15.2296C46.8523 14.5221 43.8208 14.8758 42.3942 15.0527C42.0376 15.0527 41.8592 14.699 42.2159 14.5221C44.7124 12.7532 48.6356 13.2839 48.9922 13.8145C49.5272 14.3452 48.8139 18.4136 46.674 20.1824C46.3174 20.5362 45.9607 20.3593 46.139 20.0055C46.8523 18.7673 47.9223 15.9372 47.3873 15.2296Z"
            fill="#F7981D" />
        <path fill-rule="evenodd" clip-rule="evenodd"
            d="M49.3518 13.9902C49.8868 14.5209 49.1735 18.5893 47.0336 20.3581C46.6769 20.7119 46.3203 20.535 46.4986 20.1813C47.0336 18.943 48.1035 16.1129 47.5686 15.4053"
            fill="#E86E00" />
        <path fill-rule="evenodd" clip-rule="evenodd"
            d="M42.5756 2.67062V1.07864C42.5756 0.901752 42.7539 0.724868 42.9323 0.724868H50.4219C50.6002 0.724868 50.7786 0.901752 50.7786 1.07864V2.49373C50.7786 2.67062 50.6002 3.02439 50.2436 3.55505L46.3204 9.03853C47.747 9.03853 49.1736 9.21541 50.6002 9.92296C50.9569 10.0998 50.9569 10.2767 50.9569 10.6305V12.3994C50.9569 12.5763 50.7786 12.93 50.4219 12.7531C48.1037 11.5149 45.0722 11.5149 42.5756 12.7531C42.3973 12.93 42.0406 12.5763 42.0406 12.3994V10.8074C42.0406 10.6305 42.0406 10.0998 42.3973 9.74608L46.8554 3.37816H42.9323C42.7539 3.02439 42.5756 2.84751 42.5756 2.67062ZM15.6485 12.93H13.3303C13.152 12.93 12.9736 12.7531 12.9736 12.5763V1.07864C12.9736 0.901752 13.152 0.724868 13.3303 0.724868H15.4702C15.6485 0.724868 15.8268 0.901752 15.8268 1.07864V2.49373C16.3618 1.07864 17.4318 0.371094 18.8584 0.371094C20.285 0.371094 21.1766 1.07864 21.7116 2.49373C22.2465 1.07864 23.4948 0.371094 24.7431 0.371094C25.6347 0.371094 26.7047 0.724868 27.418 1.6093C28.1313 2.49373 27.9529 3.90882 27.9529 5.14703V12.3994C27.9529 12.5763 27.7746 12.7531 27.5963 12.7531H25.2781C25.0997 12.7531 24.9214 12.5763 24.9214 12.3994V6.38523V4.2626C24.7431 3.55505 24.2081 3.20128 23.6731 3.20128C23.1382 3.20128 22.6032 3.55505 22.2465 4.08571C22.0682 4.61637 22.0682 5.67769 22.0682 6.20835V12.2225C22.0682 12.3994 21.8899 12.5763 21.7116 12.5763H19.3933C19.215 12.5763 19.0367 12.3994 19.0367 12.2225V6.20835C19.0367 4.97014 19.215 3.02439 17.6101 3.02439C16.0052 3.02439 16.0052 4.79326 16.0052 6.20835V12.2225C16.0052 12.7531 15.8268 12.93 15.6485 12.93ZM57.1983 0.371094C60.5864 0.371094 62.3697 3.20128 62.3697 6.91589C62.3697 10.4536 60.4081 13.2838 57.1983 13.2838C53.9884 13.2838 52.2052 10.4536 52.2052 6.91589C52.2052 3.20128 53.9884 0.371094 57.1983 0.371094ZM57.1983 2.67062C55.5933 2.67062 55.415 4.97014 55.415 6.38523C55.415 7.80032 55.415 10.8074 57.1983 10.8074C58.9815 10.8074 58.9815 8.33098 58.9815 6.91589C58.9815 6.03146 58.9815 4.79325 58.6249 3.90882C58.4465 3.02439 57.9116 2.67062 57.1983 2.67062ZM66.8278 12.93H64.5096C64.3313 12.93 64.1529 12.7531 64.1529 12.5763V1.07864C64.1529 0.901752 64.3313 0.724868 64.5096 0.724868H66.6495C66.8278 0.724868 67.0061 0.901752 67.0061 1.07864V2.8475C67.7194 1.25553 68.4327 0.547981 70.0377 0.547981C71.1076 0.547981 71.9992 0.901752 72.7126 1.96307C73.2475 2.8475 73.2475 4.43948 73.2475 5.5008V12.7531C73.2475 12.93 73.0692 13.1069 72.8909 13.1069H70.5726C70.3943 13.1069 70.216 12.93 70.216 12.7531V6.56212C70.216 5.32391 70.3943 3.55505 68.7894 3.55505C68.2544 3.55505 67.7194 3.90882 67.5411 4.43948C67.1845 5.14703 67.1845 5.85457 67.1845 6.56212V12.7531C67.1845 12.7531 67.0061 12.93 66.8278 12.93Z"
            fill="white" />
        <path fill-rule="evenodd" clip-rule="evenodd"
            d="M36.6902 7.4457C36.6902 8.33013 36.6902 9.03768 36.3336 9.74522C35.9769 10.4528 35.442 10.8065 34.7287 10.8065C33.837 10.8065 33.3021 10.099 33.3021 9.21456C33.3021 7.26881 35.0853 6.91504 36.6902 6.91504V7.4457ZM39.0085 12.9292H38.4735C37.7602 12.3985 37.5819 12.0447 37.2252 11.5141C35.9769 12.7523 35.0853 13.1061 33.4804 13.1061C31.5188 13.1061 30.0922 11.8679 30.0922 9.56834C30.0922 7.79947 31.1622 6.56127 32.4104 5.85372C33.6587 5.32306 35.2636 5.14618 36.6902 5.14618V4.7924C36.6902 4.26175 36.6902 3.5542 36.3336 3.20043C35.9769 2.84666 35.6203 2.66977 35.0853 2.66977C34.1937 2.66977 33.4804 3.02354 33.3021 4.08486C33.3021 4.26175 33.1237 4.43863 32.9454 4.43863L30.8055 4.08486C30.6272 4.08486 30.4489 3.90797 30.4489 3.5542C30.9838 0.900907 33.3021 0.193359 35.442 0.193359C36.5119 0.193359 37.9385 0.547133 38.8301 1.25468C39.9001 2.316 39.9001 3.5542 39.9001 5.14618V8.68391C39.9001 9.74522 40.2567 10.2759 40.7917 10.8065C40.97 10.9834 40.97 11.3372 40.7917 11.3372C40.2567 11.691 39.3651 12.3985 39.0085 12.9292ZM7.08826 7.4457C7.08826 8.33013 7.08826 9.03768 6.73161 9.74522C6.37496 10.4528 5.83999 10.8065 5.12669 10.8065C4.23506 10.8065 3.70009 10.099 3.70009 9.21456C3.70009 7.26881 5.48334 6.91504 7.08826 6.91504V7.4457ZM9.40649 12.9292H8.87152C8.15822 12.3985 7.97989 12.0447 7.62324 11.5141C6.37496 12.7523 5.48334 13.1061 3.87841 13.1061C1.91684 13.1061 0.490234 11.8679 0.490234 9.56834C0.490234 7.79947 1.56019 6.56127 2.80846 5.85372C4.05674 5.32306 5.66166 5.14618 7.08826 5.14618V4.7924C7.08826 4.26175 7.08826 3.5542 6.73161 3.20043C6.37496 2.84666 5.83999 2.66977 5.48334 2.66977C4.59171 2.66977 3.87841 3.02354 3.70009 4.08486C3.70009 4.26175 3.52176 4.43863 3.34344 4.43863L1.20353 4.08486C1.02521 4.08486 0.846885 3.90797 0.846885 3.5542C1.38186 0.900907 3.70009 0.193359 5.83999 0.193359C6.90994 0.193359 8.33654 0.547133 9.22817 1.25468C10.4764 2.316 10.2981 3.73109 10.2981 5.14618V8.68391C10.2981 9.74522 10.6548 10.2759 11.1897 10.8065C11.3681 10.9834 11.3681 11.3372 11.1897 11.3372C10.6548 11.691 9.94147 12.3985 9.40649 12.9292Z"
            fill="white" />
    </g>
</svg>