<svg width="41" height="40" viewBox="0 0 41 40" fill="none" xmlns="http://www.w3.org/2000/svg">
<rect x="0.5" width="40" height="40" rx="4" fill="white"/>
<path d="M18.2374 19.3877V30.2995H22.7645V19.3877H18.2374ZM9.57263 19.3877V30.2995H14.0998V19.3877H9.57263ZM27.0013 19.3877V30.2995H31.5284V19.3877H27.0013Z" fill="#D1DCFF"/>
<path d="M18.2374 28.4824V30.2995H22.7645V28.4843L18.2374 28.4824ZM27.0013 28.4824V30.2995H31.5285V28.4843L27.0013 28.4824ZM12.3525 28.4824C11.5422 28.4843 11.0884 29.6602 11.5882 30.2995H14.0998V28.4843L12.3525 28.4824Z" fill="#BFD2FF"/>
<path d="M8.2865 16.8428V19.0292C8.2865 19.5657 8.7201 19.9992 9.25843 19.9992H14.3312C14.8696 19.9992 15.305 19.5657 15.305 19.0273V16.8428H8.2865ZM25.7556 16.8428V19.0292C25.7556 19.5657 26.1892 19.9992 26.7294 19.9992H31.8003C32.3405 19.9992 32.7741 19.5657 32.7741 19.0273V16.8428H25.7556ZM16.9917 16.8428V19.0292C16.9917 19.5657 17.4253 19.9992 17.9636 19.9992H23.0364C23.5766 19.9992 24.0102 19.5657 24.0102 19.0273V16.8428H16.9917Z" fill="#666666"/>
<path d="M7.37521 30.0566H33.6248C34.4332 30.0566 35.0836 30.707 35.0836 31.5136V33.125C35.0836 33.9334 34.4332 34.5838 33.6248 34.5838H7.37521C7.1835 34.5843 6.99358 34.5469 6.81637 34.4737C6.63916 34.4006 6.47815 34.2932 6.34258 34.1576C6.20702 34.0221 6.09959 33.861 6.02645 33.6838C5.9533 33.5066 5.9159 33.3167 5.91639 33.125V31.5136C5.91639 30.7052 6.56679 30.0566 7.37521 30.0566Z" fill="#55A1FF"/>
<path d="M8.28552 16.8428V18.4348H15.304V16.8428H8.28552ZM16.9909 16.8428V18.4348H24.0099V16.8428H16.9909ZM25.7555 16.8428V18.4348H30.0882C31.2141 18.4348 31.0872 16.8428 30.0882 16.8428H25.7555Z" fill="#4D4D4D"/>
<path d="M33.4478 15.1411C33.2207 15.5596 32.8829 15.5859 32.4857 15.5932H10.4035C9.64029 15.5937 9.17557 16.4327 9.57904 17.0797H32.653C33.2405 17.0808 33.8084 16.8685 34.251 16.4822C34.6936 16.0959 34.9809 15.5619 35.0592 14.9797C34.4399 14.4163 33.7234 14.5014 33.4478 15.1411Z" fill="#488BFF"/>
<path d="M18.7371 6.1699C13.8095 8.94423 9.13167 11.5532 5.91638 13.4089V14.649C5.91638 15.9958 7.00039 17.0798 8.34714 17.0798H32.6547C32.974 17.0803 33.2902 17.0177 33.5852 16.8957C33.8802 16.7737 34.1483 16.5947 34.3739 16.3688C34.5996 16.143 34.7785 15.8748 34.9003 15.5797C35.022 15.2846 35.0844 14.9683 35.0836 14.649V13.4089C31.014 11.1233 27.2696 9.05442 22.3731 6.20292C20.5781 5.16668 20.4991 5.15203 18.7371 6.1699Z" fill="#55A1FF"/>
<path d="M20.24 14.5439C21.545 14.5439 22.6028 13.4861 22.6028 12.1812C22.6028 10.8762 21.545 9.81836 20.24 9.81836C18.9351 9.81836 17.8773 10.8762 17.8773 12.1812C17.8773 13.4861 18.9351 14.5439 20.24 14.5439Z" fill="#FFC861"/>
<path d="M21.0966 12.3926C20.9882 12.9477 20.5084 13.0907 20.1384 13.0673C19.9851 13.0498 19.8297 13.0691 19.6853 13.1235C19.5408 13.178 19.4114 13.2661 19.3078 13.3805C19.2041 13.4948 19.1292 13.6323 19.0892 13.7814C19.0492 13.9305 19.0453 14.087 19.0777 14.2379C19.4372 14.4412 19.8437 14.5467 20.2566 14.544C20.6696 14.5413 21.0746 14.4304 21.4313 14.2223C21.7881 14.0143 22.0841 13.7164 22.2898 13.3584C22.4956 13.0003 22.6039 12.5946 22.604 12.1816C22.6036 12.0628 22.5941 11.9442 22.5758 11.8268C21.8817 11.3732 21.1855 11.8379 21.0966 12.3926Z" fill="#FFAB61"/>
<path d="M9.88865 33.1006C9.71583 33.1012 9.54628 33.1478 9.39742 33.2355C9.24855 33.3233 9.12573 33.4492 9.04156 33.6001C8.9574 33.7511 8.91491 33.9216 8.91848 34.0944C8.92205 34.2672 8.97153 34.436 9.06186 34.5833H33.6266C34.4351 34.5833 35.0836 33.9329 35.0836 33.1245V33.1006H9.88865Z" fill="#488BFF"/>
</svg>
