<svg width="72" height="72" viewBox="0 0 72 72" fill="none" xmlns="http://www.w3.org/2000/svg">
<rect width="72" height="72" rx="8" fill="white"/>
<path d="M31.9273 34.897V54.5381H40.0762V34.897H31.9273ZM16.3308 34.897V54.5381H24.4796V34.897H16.3308ZM47.7025 34.897V54.5381H55.8513V34.897H47.7025Z" fill="#D1DCFF"/>
<path d="M31.9273 51.2676V54.5384H40.0761V51.2709L31.9273 51.2676ZM47.7024 51.2676V54.5384H55.8512V51.2709L47.7024 51.2676ZM21.3344 51.2676C19.876 51.2709 19.0591 53.3875 19.9587 54.5384H24.4795V51.2709L21.3344 51.2676Z" fill="#BFD2FF"/>
<path d="M14.0157 30.3169V34.2524C14.0157 35.2181 14.7962 35.9985 15.7652 35.9985H24.8963C25.8653 35.9985 26.6491 35.2181 26.6491 34.2491V30.3169H14.0157ZM45.4601 30.3169V34.2524C45.4601 35.2181 46.2406 35.9985 47.2129 35.9985H56.3407C57.313 35.9985 58.0935 35.2181 58.0935 34.2491V30.3169H45.4601ZM29.685 30.3169V34.2524C29.685 35.2181 30.4655 35.9985 31.4345 35.9985H40.5656C41.5379 35.9985 42.3183 35.2181 42.3183 34.2491V30.3169H29.685Z" fill="#666666"/>
<path d="M12.3754 54.1016H59.6247C61.0798 54.1016 62.2506 55.2723 62.2506 56.7241V59.6246C62.2506 61.0797 61.0798 62.2505 59.6247 62.2505H12.3754C12.0303 62.2513 11.6885 62.184 11.3695 62.0523C11.0505 61.9207 10.7607 61.7273 10.5167 61.4833C10.2727 61.2393 10.0793 60.9495 9.94763 60.6305C9.81597 60.3115 9.74865 59.9696 9.74952 59.6246V56.7241C9.74952 55.269 10.9203 54.1016 12.3754 54.1016Z" fill="#55A1FF"/>
<path d="M14.0139 30.3179V33.1835H26.6473V30.3179H14.0139ZM29.6835 30.3179V33.1835H42.3177V30.3179H29.6835ZM45.4599 30.3179V33.1835H53.2588C55.2853 33.1835 55.057 30.3179 53.2588 30.3179H45.4599Z" fill="#4D4D4D"/>
<path d="M59.306 27.2539C58.8974 28.0073 58.2893 28.0546 57.5744 28.0677H17.8263C16.4526 28.0686 15.6161 29.5788 16.3423 30.7435H57.8754C58.9329 30.7455 59.9551 30.3633 60.7518 29.6679C61.5486 28.9726 62.0656 28.0115 62.2067 26.9634C61.0919 25.9493 59.8021 26.1024 59.306 27.2539Z" fill="#488BFF"/>
<path d="M32.8268 11.1055C23.957 16.0993 15.537 20.7955 9.74951 24.1357V26.368C9.74951 28.7921 11.7007 30.7434 14.1249 30.7434H57.8785C58.4532 30.7442 59.0223 30.6316 59.5534 30.412C60.0844 30.1924 60.5669 29.8701 60.9731 29.4636C61.3793 29.0571 61.7013 28.5744 61.9205 28.0432C62.1397 27.512 62.2519 26.9427 62.2505 26.368V24.1357C54.9252 20.0216 48.1852 16.2977 39.3717 11.165C36.1406 9.29973 35.9984 9.27336 32.8268 11.1055Z" fill="#55A1FF"/>
<path d="M35.532 26.1793C37.8809 26.1793 39.785 24.2752 39.785 21.9264C39.785 19.5775 37.8809 17.6733 35.532 17.6733C33.1832 17.6733 31.2791 19.5775 31.2791 21.9264C31.2791 24.2752 33.1832 26.1793 35.532 26.1793Z" fill="#FFC861"/>
<path d="M37.0739 22.3063C36.8787 23.3055 36.0151 23.5628 35.3492 23.5208C35.0731 23.4893 34.7935 23.524 34.5335 23.622C34.2735 23.72 34.0406 23.8785 33.854 24.0844C33.6674 24.2903 33.5325 24.5377 33.4605 24.8061C33.3885 25.0745 33.3815 25.3562 33.4399 25.6278C34.087 25.9937 34.8186 26.1837 35.5619 26.1788C36.3052 26.1739 37.0343 25.9743 37.6764 25.5998C38.3186 25.2254 38.8514 24.6892 39.2217 24.0447C39.5921 23.4002 39.7871 22.6699 39.7872 21.9265C39.7864 21.7126 39.7695 21.4991 39.7365 21.2878C38.487 20.4714 37.234 21.3079 37.0739 22.3063Z" fill="#FFAB61"/>
<path d="M16.8996 59.5815C16.5885 59.5826 16.2834 59.6665 16.0154 59.8245C15.7475 59.9825 15.5264 60.209 15.3749 60.4807C15.2234 60.7524 15.1469 61.0595 15.1533 61.3705C15.1597 61.6815 15.2488 61.9852 15.4114 62.2504H59.628C61.0832 62.2504 62.2506 61.0797 62.2506 59.6245V59.5815H16.8996Z" fill="#488BFF"/>
</svg>
