<svg width="72" height="72" viewBox="0 0 72 72" fill="none" xmlns="http://www.w3.org/2000/svg">
<rect width="72" height="72" rx="8" fill="white"/>
<g clip-path="url(#clip0_6313_5316)">
<path d="M47.5316 18.8977L46.6531 18.8675C46.383 17.6971 45.9207 16.5796 45.2851 15.5604L45.8836 14.9195C46.0951 14.6927 46.2104 14.3926 46.2051 14.0825C46.1998 13.7724 46.0743 13.4764 45.8551 13.257L44.0881 11.4886C43.8686 11.2694 43.5727 11.1439 43.2626 11.1386C42.9524 11.1333 42.6524 11.2486 42.4256 11.4602L41.7807 12.0609C40.7624 11.4248 39.6458 10.9617 38.4763 10.6902L38.4461 9.81213C38.4354 9.50192 38.3047 9.20798 38.0814 8.99233C37.8582 8.77668 37.5599 8.65618 37.2495 8.65625H34.7505C34.4401 8.65629 34.1419 8.77683 33.9187 8.99246C33.6955 9.20808 33.5647 9.50195 33.5539 9.81213L33.5238 10.6906C32.3534 10.9607 31.2358 11.423 30.2167 12.0587L29.5758 11.4602C29.349 11.2486 29.0489 11.1333 28.7388 11.1386C28.4286 11.1439 28.1327 11.2694 27.9133 11.4886L26.1458 13.2557C25.9267 13.4752 25.8014 13.7711 25.7961 14.0812C25.7908 14.3913 25.9059 14.6913 26.1173 14.9182L26.718 15.5618C26.082 16.5801 25.6188 17.6966 25.3473 18.8662L24.4693 18.8964C24.1587 18.9068 23.8643 19.0377 23.6484 19.2612C23.4326 19.4847 23.3121 19.7835 23.3125 20.0942V22.5932C23.3125 22.9037 23.4331 23.202 23.6489 23.4252C23.8646 23.6484 24.1586 23.7792 24.4688 23.7898L25.3469 23.82C25.617 24.9904 26.0793 26.1079 26.7149 27.1271L26.1164 27.768C25.905 27.9949 25.7898 28.2949 25.7951 28.605C25.8004 28.9151 25.9258 29.211 26.1449 29.4305L27.9124 31.198C28.1319 31.4171 28.4278 31.5425 28.7379 31.5478C29.048 31.5531 29.348 31.4379 29.5749 31.2264L30.2184 30.6257C31.2368 31.2618 32.3533 31.7249 33.5229 31.9964L33.5531 32.8745C33.5635 33.185 33.6943 33.4793 33.9177 33.6952C34.1412 33.911 34.4398 34.0315 34.7505 34.0312H37.2495C37.5599 34.0313 37.8582 33.9108 38.0814 33.6952C38.3047 33.4795 38.4354 33.1856 38.4461 32.8754L38.4763 31.9969C39.6466 31.7268 40.7642 31.2645 41.7833 30.6288L42.4243 31.2273C42.6512 31.4387 42.9512 31.5538 43.2612 31.5485C43.5713 31.5432 43.8672 31.4179 44.0868 31.1989L45.8538 29.4314C46.073 29.2119 46.1985 28.916 46.2038 28.6059C46.2091 28.2957 46.0938 27.9957 45.8822 27.7689L45.2816 27.1253C45.9176 26.107 46.3808 24.9904 46.6523 23.8209L47.5303 23.7907C47.8409 23.7802 48.1352 23.6495 48.3511 23.426C48.5671 23.2026 48.6877 22.904 48.6875 22.5932V20.0942C48.6876 19.7839 48.5671 19.4856 48.3514 19.2623C48.1358 19.0391 47.8418 18.9084 47.5316 18.8977ZM36 27.3301C34.816 27.3301 33.6586 26.979 32.6742 26.3212C31.6897 25.6634 30.9225 24.7285 30.4694 23.6346C30.0163 22.5408 29.8977 21.3371 30.1287 20.1759C30.3597 19.0146 30.9298 17.948 31.767 17.1108C32.6042 16.2736 33.6709 15.7034 34.8321 15.4725C35.9934 15.2415 37.197 15.36 38.2909 15.8131C39.3847 16.2662 40.3197 17.0335 40.9774 18.0179C41.6352 19.0024 41.9863 20.1598 41.9863 21.3438C41.9863 22.9314 41.3556 24.4541 40.233 25.5767C39.1103 26.6994 37.5877 27.3301 36 27.3301Z" fill="#9E9E9E"/>
<path d="M59.2719 25.8231L58.6669 25.4731C59.8244 23.5556 60.2731 21.2929 59.935 19.0788C59.5969 16.8646 58.4933 14.839 56.8163 13.3544C56.5657 13.1283 56.2381 13.0069 55.9008 13.015C55.5635 13.0232 55.2421 13.1603 55.0028 13.3981L53.6225 14.781C53.4955 14.9073 53.3958 15.0584 53.3296 15.2248C53.2634 15.3912 53.2321 15.5694 53.2376 15.7484C53.2431 15.9274 53.2853 16.1034 53.3616 16.2654C53.4379 16.4274 53.5466 16.572 53.6811 16.6903C54.5746 17.4937 55.1677 18.5775 55.3625 19.7632C55.5574 20.9488 55.3424 22.1655 54.753 23.2125L54.1475 22.8625C53.9728 22.7617 53.7728 22.7134 53.5713 22.7232C53.3699 22.7331 53.1756 22.8008 53.0116 22.9182C52.8475 23.0356 52.7208 23.1977 52.6465 23.3852C52.5723 23.5727 52.5535 23.7777 52.5926 23.9755L53.4641 28.3873C53.4932 28.5341 53.5533 28.673 53.6404 28.7946C53.7275 28.9163 53.8396 29.018 53.9692 29.0928C54.0987 29.1676 54.2428 29.2139 54.3917 29.2285C54.5407 29.2431 54.691 29.2256 54.8326 29.1774L59.0856 27.7289C59.2772 27.6642 59.446 27.5455 59.5718 27.3872C59.6976 27.2288 59.775 27.0375 59.7947 26.8362C59.8144 26.6349 59.7755 26.4323 59.6828 26.2525C59.5901 26.0728 59.4474 25.9237 59.2719 25.8231ZM12.7281 16.4265L13.3331 16.7765C12.1756 18.694 11.7269 20.9566 12.065 23.1708C12.4031 25.385 13.5067 27.4105 15.1838 28.8952C15.4343 29.1213 15.7619 29.2427 16.0992 29.2345C16.4365 29.2264 16.7579 29.0893 16.9972 28.8515L18.3775 27.4685C18.5045 27.3423 18.6042 27.1912 18.6704 27.0248C18.7366 26.8584 18.7679 26.6802 18.7625 26.5012C18.757 26.3222 18.7147 26.1462 18.6384 25.9842C18.5621 25.8222 18.4534 25.6775 18.3189 25.5593C17.4254 24.7559 16.8324 23.672 16.6375 22.4864C16.4427 21.3008 16.6576 20.0841 17.247 19.037L17.8525 19.387C18.0272 19.4878 18.2272 19.5362 18.4287 19.5263C18.6301 19.5165 18.8245 19.4488 18.9885 19.3314C19.1525 19.214 19.2792 19.0519 19.3535 18.8643C19.4278 18.6768 19.4465 18.4719 19.4074 18.274L18.5359 13.8645C18.5068 13.7177 18.4467 13.5789 18.3595 13.4573C18.2724 13.3356 18.1603 13.234 18.0307 13.1593C17.9012 13.0845 17.7571 13.0383 17.6082 13.0237C17.4593 13.0091 17.309 13.0266 17.1674 13.0748L12.9144 14.5229C12.7234 14.5879 12.5552 14.7066 12.4298 14.8647C12.3045 15.0229 12.2274 15.2138 12.2077 15.4146C12.188 15.6155 12.2267 15.8177 12.3189 15.9971C12.4112 16.1766 12.5533 16.3257 12.7281 16.4265Z" fill="#8BC34A"/>
<path d="M13.6875 38.4062V59.4062C13.6875 60.4505 14.1023 61.4521 14.8408 62.1905C15.5792 62.9289 16.5807 63.3438 17.625 63.3438H54.375C55.4193 63.3438 56.4208 62.9289 57.1592 62.1905C57.8977 61.4521 58.3125 60.4505 58.3125 59.4062V38.4062C58.3125 38.0582 58.1742 37.7243 57.9281 37.4782C57.6819 37.232 57.3481 37.0938 57 37.0938H15C14.6519 37.0938 14.3181 37.232 14.0719 37.4782C13.8258 37.7243 13.6875 38.0582 13.6875 38.4062Z" fill="#FFC107"/>
<path d="M43 37.0938V63.3438H54.375C55.4193 63.3438 56.4208 62.9289 57.1592 62.1905C57.8977 61.4521 58.3125 60.4505 58.3125 59.4062V38.4062C58.3125 38.0582 58.1742 37.7243 57.9281 37.4782C57.6819 37.232 57.3481 37.0938 57 37.0938H43Z" fill="#FFB300"/>
<path d="M9.23285 42.3722L12.9 38.0256C13.1464 37.7337 13.4535 37.4991 13.8 37.3381C14.1465 37.1771 14.5239 37.0938 14.9059 37.0938H43L37.9031 43.1334C37.5335 43.5714 37.0727 43.9233 36.553 44.1648C36.0332 44.4062 35.4671 44.5313 34.894 44.5312H10.2356C9.98546 44.5312 9.74054 44.4597 9.52968 44.3251C9.31883 44.1905 9.15083 43.9985 9.04546 43.7716C8.94009 43.5447 8.90175 43.2925 8.93495 43.0446C8.96815 42.7966 9.07151 42.5633 9.23285 42.3722Z" fill="#FFD54F"/>
<path d="M62.7671 42.3722L59.1 38.0256C58.8536 37.7337 58.5464 37.4991 58.2 37.3381C57.8535 37.1771 57.4761 37.0938 57.0941 37.0938H43L48.0969 43.1334C48.4665 43.5714 48.9273 43.9233 49.447 44.1648C49.9668 44.4062 50.5329 44.5313 51.106 44.5312H61.7644C62.0145 44.5312 62.2594 44.4597 62.4703 44.3251C62.6811 44.1905 62.8491 43.9985 62.9545 43.7716C63.0599 43.5447 63.0982 43.2925 63.065 43.0446C63.0318 42.7966 62.9285 42.5633 62.7671 42.3722Z" fill="#FFC107"/>
<path d="M23.9688 55.9062H18.2812C17.9188 55.9062 17.625 56.2001 17.625 56.5625V58.75C17.625 59.1124 17.9188 59.4062 18.2812 59.4062H23.9688C24.3312 59.4062 24.625 59.1124 24.625 58.75V56.5625C24.625 56.2001 24.3312 55.9062 23.9688 55.9062Z" fill="white"/>
<path d="M39.2812 58.5312H35.3438C35.1697 58.5312 35.0028 58.6004 34.8797 58.7235C34.7566 58.8465 34.6875 59.0135 34.6875 59.1875C34.6875 59.3615 34.7566 59.5285 34.8797 59.6515C35.0028 59.7746 35.1697 59.8438 35.3438 59.8438H39.2812C39.4553 59.8438 39.6222 59.7746 39.7453 59.6515C39.8684 59.5285 39.9375 59.3615 39.9375 59.1875C39.9375 59.0135 39.8684 58.8465 39.7453 58.7235C39.6222 58.6004 39.4553 58.5312 39.2812 58.5312ZM39.2812 55.0313H35.3438C35.1697 55.0312 35.0028 55.1004 34.8797 55.2235C34.7566 55.3465 34.6875 55.5135 34.6875 55.6875C34.6875 55.8615 34.7566 56.0285 34.8797 56.1515C35.0028 56.2746 35.1697 56.3438 35.3438 56.3438H39.2812C39.4553 56.3438 39.6222 56.2746 39.7453 56.1515C39.8684 56.0285 39.9375 55.8615 39.9375 55.6875C39.9375 55.5135 39.8684 55.3465 39.7453 55.2235C39.6222 55.1004 39.4553 55.0313 39.2812 55.0313Z" fill="white"/>
</g>
<defs>
<clipPath id="clip0_6313_5316">
<rect width="56" height="56" fill="white" transform="translate(8 8)"/>
</clipPath>
</defs>
</svg>
