<svg width="40" height="40" viewBox="0 0 40 40" fill="none" xmlns="http://www.w3.org/2000/svg">
<rect width="40" height="40" rx="4" fill="white"/>
<g clip-path="url(#clip0_1904_146144)">
<path d="M14.2963 26.7402H25.7037V31.4069H14.2963V26.7402ZM28.8148 35.0365H11.1852C11.0477 35.0365 10.9158 34.9819 10.8186 34.8847C10.7213 34.7874 10.6667 34.6555 10.6667 34.518V32.9625L11.7037 32.4439H28.2963L29.3334 32.9625V34.518C29.3334 34.6555 29.2787 34.7874 29.1815 34.8847C29.0842 34.9819 28.9524 35.0365 28.8148 35.0365Z" fill="#A9B0BB"/>
<path d="M29.3334 32.9632L25.7038 30.3706H14.2963L10.6667 32.9632H29.3334ZM35.0371 23.6298V26.2224C35.0371 26.635 34.8732 27.0307 34.5815 27.3224C34.2898 27.6141 33.8941 27.778 33.4815 27.778H6.51857C6.10601 27.778 5.71035 27.6141 5.41862 27.3224C5.1269 27.0307 4.96301 26.635 4.96301 26.2224V23.6298L5.48153 23.1113H34.5186L35.0371 23.6298Z" fill="#CAD0D7"/>
<path d="M35.0371 6.51845V23.6296H4.96301V6.51845C4.96301 6.10589 5.1269 5.71023 5.41862 5.4185C5.71035 5.12678 6.10601 4.96289 6.51857 4.96289H33.4815C33.8941 4.96289 34.2898 5.12678 34.5815 5.4185C34.8732 5.71023 35.0371 6.10589 35.0371 6.51845Z" fill="#4FC0E8"/>
<path d="M21.0371 26.2226H18.963C18.8255 26.2226 18.6936 26.168 18.5963 26.0707C18.4991 25.9735 18.4445 25.8416 18.4445 25.7041C18.4445 25.5665 18.4991 25.4347 18.5963 25.3374C18.6936 25.2402 18.8255 25.1855 18.963 25.1855H21.0371C21.1746 25.1855 21.3065 25.2402 21.4037 25.3374C21.5009 25.4347 21.5556 25.5665 21.5556 25.7041C21.5556 25.8416 21.5009 25.9735 21.4037 26.0707C21.3065 26.168 21.1746 26.2226 21.0371 26.2226Z" fill="#A9B0BB"/>
<path d="M16.737 9.78139C16.6398 9.68419 16.5079 9.62958 16.3704 9.62958C16.2329 9.62958 16.1011 9.68419 16.0038 9.78139L11.8557 13.9295C11.7585 14.0268 11.7039 14.1586 11.7039 14.2961C11.7039 14.4336 11.7585 14.5655 11.8557 14.6627L16.0038 18.8109C16.1016 18.9053 16.2326 18.9576 16.3685 18.9564C16.5045 18.9552 16.6346 18.9007 16.7307 18.8046C16.8268 18.7084 16.8814 18.5784 16.8825 18.4424C16.8837 18.3065 16.8315 18.1755 16.737 18.0777L12.9555 14.2961L16.737 10.5146C16.8342 10.4173 16.8888 10.2855 16.8888 10.148C16.8888 10.0105 16.8342 9.87863 16.737 9.78139ZM28.1444 13.9295L23.9963 9.78139C23.8985 9.68694 23.7675 9.63468 23.6315 9.63586C23.4956 9.63704 23.3655 9.69157 23.2694 9.78771C23.1733 9.88385 23.1187 10.0139 23.1175 10.1499C23.1164 10.2858 23.1686 10.4168 23.2631 10.5146L27.0446 14.2961L23.2631 18.0777C23.2136 18.1255 23.1741 18.1827 23.1469 18.246C23.1197 18.3093 23.1054 18.3773 23.1048 18.4461C23.1042 18.515 23.1173 18.5833 23.1434 18.647C23.1695 18.7107 23.208 18.7686 23.2567 18.8173C23.3053 18.866 23.3632 18.9045 23.427 18.9306C23.4907 18.9566 23.559 18.9698 23.6278 18.9692C23.6967 18.9686 23.7647 18.9542 23.828 18.9271C23.8912 18.8999 23.9484 18.8604 23.9963 18.8109L28.1444 14.6627C28.2416 14.5655 28.2962 14.4336 28.2962 14.2961C28.2962 14.1586 28.2416 14.0268 28.1444 13.9295ZM21.7381 9.66213C21.6743 9.63811 21.6063 9.62692 21.5382 9.62919C21.47 9.63147 21.403 9.64717 21.3409 9.6754C21.2788 9.70362 21.2229 9.74382 21.1764 9.79368C21.1298 9.84354 21.0936 9.9021 21.0697 9.96599L17.9586 18.2623C17.9347 18.3261 17.9236 18.394 17.9259 18.4621C17.9282 18.5302 17.9439 18.5972 17.9721 18.6592C18.0004 18.7212 18.0405 18.7771 18.0903 18.8236C18.1402 18.8701 18.1987 18.9063 18.2625 18.9301C18.3208 18.9515 18.3824 18.9626 18.4445 18.9628C18.5501 18.9629 18.6532 18.9307 18.7401 18.8705C18.8269 18.8104 18.8933 18.7252 18.9303 18.6263L22.0415 10.33C22.0654 10.2662 22.0766 10.1984 22.0743 10.1303C22.072 10.0622 22.0563 9.99523 22.0282 9.93321C22 9.87119 21.9599 9.81533 21.9101 9.76882C21.8603 9.7223 21.8019 9.68605 21.7381 9.66213Z" fill="#A0FA34"/>
</g>
<defs>
<clipPath id="clip0_1904_146144">
<rect width="31.1111" height="31.1111" fill="white" transform="translate(4.44446 4.44434)"/>
</clipPath>
</defs>
</svg>
