<svg width="41" height="40" viewBox="0 0 41 40" fill="none" xmlns="http://www.w3.org/2000/svg">
<rect x="0.5" width="40" height="40" rx="4" fill="white"/>
<path d="M12.7569 26.4424L12.7627 27.7455L9.61639 29.5593C7.48556 28.0625 6.42309 26.231 6.41722 24.3996L6.41138 23.0964C6.41138 21.2356 7.49732 19.3748 9.66923 17.8604L12.7921 19.6801L12.798 20.9832C11.7179 21.7991 11.0839 22.7501 10.8902 23.7245C11.078 24.6931 11.7061 25.6323 12.7569 26.4424Z" fill="#FEBC1F"/>
<path d="M34.5875 23.0382V24.3237C34.5933 26.1846 33.5074 28.0512 31.3355 29.5657L28.2009 27.7401L28.195 26.437C29.2751 25.621 29.915 24.6701 30.1087 23.7015C29.8797 22.4982 28.964 21.3242 27.3674 20.3967C23.9217 18.395 18.4978 18.2248 14.694 19.8919L11.5653 18.0722L11.5594 16.769C17.1066 14.1158 25.3246 14.2919 30.4902 17.2915C33.2198 18.8764 34.5875 20.9543 34.5875 23.0382Z" fill="#72D561"/>
<path d="M29.4453 30.6571C24.2328 33.1459 16.6781 33.1459 11.4948 30.6512V29.348L14.6353 27.5342C18.0692 29.0428 22.8592 29.0428 26.3049 27.5283L29.4395 29.3539L29.4453 30.6571Z" fill="#497BFE"/>
<path d="M11.5599 16.7705L11.564 18.0731L14.6928 19.8916L14.6892 18.589L11.5599 16.7705Z" fill="#5EC363"/>
<path d="M30.1789 24.3313L30.1752 23.0286C30.1712 21.6042 29.2342 20.1819 27.3645 19.0954C23.9181 17.0925 18.4917 16.9217 14.689 18.5887L14.6927 19.8914C18.4954 18.2243 23.9218 18.3952 27.3682 20.3981C29.2379 21.4846 30.1749 22.9069 30.1789 24.3313Z" fill="#72D561"/>
<path d="M28.1944 26.4375L28.1979 27.7401L31.3337 29.5627L31.3302 28.2601L28.1944 26.4375Z" fill="#5EC363"/>
<path d="M34.5886 24.3251L34.5849 23.0225C34.5902 24.8825 33.5047 26.7447 31.3301 28.2592L31.3338 29.5619C33.5084 28.0474 34.5939 26.1851 34.5886 24.3251Z" fill="#72D561"/>
<path d="M30.4906 17.291C25.3242 14.2886 17.1079 14.1158 11.5605 16.7705L14.6894 18.5888C18.4922 16.9218 23.9185 17.0926 27.365 19.0955C30.8115 21.0984 31.0887 24.2421 28.195 26.4374L31.3306 28.2596C35.9319 25.0551 35.6569 20.2933 30.4906 17.291Z" fill="#78E75A"/>
<path d="M10.8178 23.0853L10.8215 24.388C10.8181 23.1872 11.4765 21.985 12.7983 20.9814L12.7946 19.6787C11.4729 20.6823 10.8144 21.8845 10.8178 23.0853ZM6.41254 23.097L6.41623 24.3997C6.42143 26.2333 7.48822 28.0646 9.61768 29.5584L9.61399 28.2557C7.48453 26.7619 6.41773 24.9306 6.41254 23.097Z" fill="#FFD06C"/>
<path d="M9.61407 28.2558L9.6176 29.5584L12.7604 27.744L12.7569 26.4414L9.61407 28.2558Z" fill="#FEBC1F"/>
<path d="M12.7566 26.4412C10.1609 24.4482 10.1697 21.6717 12.7946 19.6786L9.66912 17.8623C5.34691 20.8705 5.32565 25.2474 9.614 28.2556L12.7566 26.4412Z" fill="#FFDE9B"/>
<path d="M11.4927 29.3477L11.4964 30.6503C16.6758 33.1441 24.2354 33.1481 29.4428 30.6544L29.4392 29.3517C24.2317 31.8454 16.6721 31.8415 11.4927 29.3477Z" fill="#497BFE"/>
<path d="M27.2676 22.5449L24.6965 24.03L22.1372 22.5449L22.0961 8.96168L24.6671 7.47656L27.2323 8.96755L27.2676 22.5449Z" fill="#DF3260"/>
<path d="M22.0961 8.96387L22.1348 22.5436L24.6965 24.0322L24.6577 10.4525L22.0961 8.96387Z" fill="#E93565"/>
<path d="M24.6578 10.4519L24.6965 24.0316L27.2682 22.5465L27.23 8.9668L24.6578 10.4519Z" fill="#DF3260"/>
<path d="M22.0961 8.96363L24.6577 10.4523L27.23 8.96715L24.6683 7.47852L22.0961 8.96363Z" fill="#F45170"/>
<path d="M23.6164 24.6582L21.0454 26.1375L18.486 24.6524L18.4449 14.8142L21.016 13.335L23.5753 14.8201L23.6164 24.6582Z" fill="#DEDFFB"/>
<path d="M18.4479 14.8154L18.486 24.6489L21.0477 26.1375L21.0096 16.3041L18.4479 14.8154Z" fill="#E9E7FC"/>
<path d="M21.0096 16.3037L21.0477 26.1371L23.6165 24.6544L23.5783 14.8203L21.0096 16.3037Z" fill="#DEDFFB"/>
<path d="M18.4479 14.8154L21.0096 16.304L23.5783 14.8207L21.0166 13.332L18.4479 14.8154Z" fill="#F3F1FC"/>
<path d="M19.9653 26.7647L17.3942 28.244L14.8349 26.7589L14.7938 20.6716L17.3648 19.1865L19.9242 20.6775L19.9653 26.7647Z" fill="#7E5AF2"/>
<path d="M14.7961 20.6699L14.8343 26.7577L17.396 28.2464L17.3578 22.1591L14.7961 20.6699Z" fill="#986FF9"/>
<path d="M17.3578 22.1582L17.396 28.2454L19.9647 26.7626L19.9266 20.6748L17.3578 22.1582Z" fill="#7E5AF2"/>
<path d="M14.7961 20.6693L17.3578 22.1585L19.9265 20.6752L17.3649 19.1865L14.7961 20.6693Z" fill="#B28AFD"/>
<path d="M26.3069 27.5312C22.8576 29.0452 18.0675 29.0432 14.6352 27.5331L11.4927 29.3475C16.6721 31.8413 24.2317 31.8453 29.4392 29.3515L26.3069 27.5312Z" fill="#57B3FE"/>
</svg>
