<svg width="72" height="72" viewBox="0 0 72 72" fill="none" xmlns="http://www.w3.org/2000/svg">
<rect width="72" height="72" rx="8" fill="white"/>
<g clip-path="url(#clip0_6313_5339)">
<path fill-rule="evenodd" clip-rule="evenodd" d="M29.084 26.6481C28.664 26.6481 28.328 26.3121 28.328 25.9201V19.5641C28.328 19.1441 28.664 18.8081 29.084 18.8081C29.504 18.8081 29.84 19.1441 29.84 19.5641V25.9201C29.84 26.3121 29.504 26.6481 29.084 26.6481ZM36 26.6481C35.58 26.6481 35.244 26.3121 35.244 25.9201V16.9321C35.244 16.5401 35.58 16.2041 36 16.2041C36.42 16.2041 36.756 16.5401 36.756 16.9321V25.9201C36.756 26.3121 36.42 26.6481 36 26.6481ZM42.916 26.6481C42.496 26.6481 42.16 26.3121 42.16 25.9201V19.5641C42.16 19.1441 42.496 18.8081 42.916 18.8081C43.336 18.8081 43.672 19.1441 43.672 19.5641V25.9201C43.672 26.3121 43.336 26.6481 42.916 26.6481ZM52.436 29.8401H46.08C45.688 29.8401 45.352 29.5041 45.352 29.0841C45.352 28.6641 45.688 28.3281 46.08 28.3281H52.436C52.856 28.3281 53.192 28.6641 53.192 29.0841C53.192 29.5041 52.856 29.8401 52.436 29.8401ZM55.068 36.7561H46.08C45.688 36.7561 45.352 36.4201 45.352 36.0001C45.352 35.5801 45.688 35.2441 46.08 35.2441H55.068C55.46 35.2441 55.796 35.5801 55.796 36.0001C55.796 36.4201 55.46 36.7561 55.068 36.7561ZM52.436 43.6721H46.08C45.688 43.6721 45.352 43.3361 45.352 42.9161C45.352 42.4961 45.688 42.1601 46.08 42.1601H52.436C52.856 42.1601 53.192 42.4961 53.192 42.9161C53.192 43.3361 52.856 43.6721 52.436 43.6721ZM42.916 53.1921C42.496 53.1921 42.16 52.8561 42.16 52.4361V46.0801C42.16 45.6881 42.496 45.3521 42.916 45.3521C43.336 45.3521 43.672 45.6881 43.672 46.0801V52.4361C43.672 52.8561 43.336 53.1921 42.916 53.1921ZM36 55.7961C35.58 55.7961 35.244 55.4601 35.244 55.0681V46.0801C35.244 45.6881 35.58 45.3521 36 45.3521C36.42 45.3521 36.756 45.6881 36.756 46.0801V55.0681C36.756 55.4601 36.42 55.7961 36 55.7961ZM29.084 53.1921C28.664 53.1921 28.328 52.8561 28.328 52.4361V46.0801C28.328 45.6881 28.664 45.3521 29.084 45.3521C29.504 45.3521 29.84 45.6881 29.84 46.0801V52.4361C29.84 52.8561 29.504 53.1921 29.084 53.1921ZM25.92 43.6721H19.564C19.144 43.6721 18.808 43.3361 18.808 42.9161C18.808 42.4961 19.144 42.1601 19.564 42.1601H25.92C26.312 42.1601 26.648 42.4961 26.648 42.9161C26.648 43.3361 26.312 43.6721 25.92 43.6721ZM25.92 36.7561H16.932C16.54 36.7561 16.204 36.4201 16.204 36.0001C16.204 35.5801 16.54 35.2441 16.932 35.2441H25.92C26.312 35.2441 26.648 35.5801 26.648 36.0001C26.648 36.4201 26.312 36.7561 25.92 36.7561ZM25.92 29.8401H19.564C19.144 29.8401 18.808 29.5041 18.808 29.0841C18.808 28.6641 19.144 28.3281 19.564 28.3281H25.92C26.312 28.3281 26.648 28.6641 26.648 29.0841C26.648 29.5041 26.312 29.8401 25.92 29.8401Z" fill="#58535A"/>
<path fill-rule="evenodd" clip-rule="evenodd" d="M29.0841 20.2917C27.5161 20.2917 26.2841 19.1157 26.2841 17.6037C26.2841 16.0637 27.5441 14.8037 29.0841 14.8037C30.6241 14.8037 31.8841 16.0637 31.8841 17.6037C31.8841 19.1157 30.6521 20.2917 29.0841 20.2917Z" fill="url(#paint0_linear_6313_5339)"/>
<path fill-rule="evenodd" clip-rule="evenodd" d="M36 17.6879C34.46 17.6879 33.2 16.4279 33.2 14.8879C33.2 13.3479 34.46 12.0879 36 12.0879C37.54 12.0879 38.8 13.3479 38.8 14.8879C38.8 16.4279 37.54 17.6879 36 17.6879Z" fill="url(#paint1_linear_6313_5339)"/>
<path fill-rule="evenodd" clip-rule="evenodd" d="M42.916 20.2917C41.348 20.2917 40.116 19.1157 40.116 17.6037C40.116 16.0637 41.376 14.8037 42.916 14.8037C44.456 14.8037 45.716 16.0637 45.716 17.6037C45.716 19.1157 44.484 20.2917 42.916 20.2917Z" fill="url(#paint2_linear_6313_5339)"/>
<path fill-rule="evenodd" clip-rule="evenodd" d="M54.396 31.8842C52.884 31.8842 51.708 30.6522 51.708 29.0842C51.708 27.5162 52.884 26.2842 54.396 26.2842C55.936 26.2842 57.196 27.5442 57.196 29.0842C57.196 30.6242 55.936 31.8842 54.396 31.8842Z" fill="url(#paint3_linear_6313_5339)"/>
<path fill-rule="evenodd" clip-rule="evenodd" d="M57.112 38.8002C55.572 38.8002 54.312 37.5402 54.312 36.0002C54.312 34.4602 55.572 33.2002 57.112 33.2002C58.652 33.2002 59.912 34.4602 59.912 36.0002C59.912 37.5402 58.652 38.8002 57.112 38.8002Z" fill="url(#paint4_linear_6313_5339)"/>
<path fill-rule="evenodd" clip-rule="evenodd" d="M54.396 45.7162C52.884 45.7162 51.708 44.4842 51.708 42.9162C51.708 41.3482 52.884 40.1162 54.396 40.1162C55.936 40.1162 57.196 41.3762 57.196 42.9162C57.196 44.4562 55.936 45.7162 54.396 45.7162Z" fill="url(#paint5_linear_6313_5339)"/>
<path fill-rule="evenodd" clip-rule="evenodd" d="M42.916 57.196C41.376 57.196 40.116 55.936 40.116 54.396C40.116 52.884 41.348 51.708 42.916 51.708C44.484 51.708 45.716 52.884 45.716 54.396C45.716 55.936 44.456 57.196 42.916 57.196Z" fill="url(#paint6_linear_6313_5339)"/>
<path fill-rule="evenodd" clip-rule="evenodd" d="M36 59.9115C34.46 59.9115 33.2 58.6515 33.2 57.1115C33.2 55.5715 34.46 54.3115 36 54.3115C37.54 54.3115 38.8 55.5715 38.8 57.1115C38.8 58.6515 37.54 59.9115 36 59.9115Z" fill="url(#paint7_linear_6313_5339)"/>
<path fill-rule="evenodd" clip-rule="evenodd" d="M29.0841 57.196C27.5441 57.196 26.2841 55.936 26.2841 54.396C26.2841 52.884 27.5161 51.708 29.0841 51.708C30.6521 51.708 31.8841 52.884 31.8841 54.396C31.8841 55.936 30.6241 57.196 29.0841 57.196Z" fill="url(#paint8_linear_6313_5339)"/>
<path fill-rule="evenodd" clip-rule="evenodd" d="M17.604 45.7162C16.064 45.7162 14.804 44.4562 14.804 42.9162C14.804 41.3762 16.064 40.1162 17.604 40.1162C19.116 40.1162 20.292 41.3482 20.292 42.9162C20.292 44.4842 19.116 45.7162 17.604 45.7162Z" fill="url(#paint9_linear_6313_5339)"/>
<path fill-rule="evenodd" clip-rule="evenodd" d="M14.888 38.8002C13.348 38.8002 12.088 37.5402 12.088 36.0002C12.088 34.4602 13.348 33.2002 14.888 33.2002C16.428 33.2002 17.688 34.4602 17.688 36.0002C17.688 37.5402 16.428 38.8002 14.888 38.8002Z" fill="url(#paint10_linear_6313_5339)"/>
<path fill-rule="evenodd" clip-rule="evenodd" d="M17.604 31.8842C16.064 31.8842 14.804 30.6242 14.804 29.0842C14.804 27.5442 16.064 26.2842 17.604 26.2842C19.116 26.2842 20.292 27.5162 20.292 29.0842C20.292 30.6522 19.116 31.8842 17.604 31.8842Z" fill="url(#paint11_linear_6313_5339)"/>
<path fill-rule="evenodd" clip-rule="evenodd" d="M43.5601 46.8361H28.4401C26.6201 46.8361 25.1641 45.3801 25.1641 43.5601V28.4401C25.1641 26.6201 26.6201 25.1641 28.4401 25.1641H43.5601C45.3801 25.1641 46.8361 26.6201 46.8361 28.4401V43.5601C46.8361 45.3801 45.3801 46.8361 43.5601 46.8361Z" fill="url(#paint12_linear_6313_5339)"/>
<path fill-rule="evenodd" clip-rule="evenodd" d="M36.7559 42.0758C36.4479 42.0758 36.1679 41.9078 36.0559 41.6278L33.8159 36.2798H30.6519L28.3559 41.6278C28.2159 41.9918 27.7679 42.1598 27.3759 42.0198C27.0119 41.8518 26.8439 41.4038 26.9839 41.0118L29.3639 35.4958C29.3639 35.3278 29.4479 35.1318 29.5879 35.0198L31.5759 30.3718C31.6879 30.0918 31.9679 29.9238 32.2759 29.9238C32.5559 29.9238 32.8359 30.0918 32.9479 30.3718L34.9359 35.1038C34.9919 35.1878 35.0199 35.2998 35.0479 35.3838L37.4279 41.0398C37.5959 41.4318 37.3999 41.8518 37.0359 42.0198C36.9519 42.0478 36.8399 42.0758 36.7559 42.0758ZM44.3159 31.3238H42.7199V40.6758H44.3159C44.7359 40.6758 45.0719 41.0118 45.0719 41.4318C45.0719 41.8238 44.7359 42.1598 44.3159 42.1598H41.9919H39.6399C39.2199 42.1598 38.8839 41.8238 38.8839 41.4318C38.8839 41.0118 39.2199 40.6758 39.6399 40.6758H41.2359V31.3238H39.6399C39.2199 31.3238 38.8839 30.9878 38.8839 30.5678C38.8839 30.1758 39.2199 29.8398 39.6399 29.8398H41.9639H41.9919H44.3159C44.7359 29.8398 45.0719 30.1758 45.0719 30.5678C45.0719 30.9878 44.7359 31.3238 44.3159 31.3238ZM33.1719 34.7958L32.2479 32.5838L31.2959 34.7958H33.1719Z" fill="url(#paint13_linear_6313_5339)"/>
</g>
<defs>
<linearGradient id="paint0_linear_6313_5339" x1="29.0869" y1="14.7932" x2="29.0869" y2="20.305" gradientUnits="userSpaceOnUse">
<stop stop-color="#FF0000"/>
<stop offset="1" stop-color="#990000"/>
</linearGradient>
<linearGradient id="paint1_linear_6313_5339" x1="35.9998" y1="12.0844" x2="35.9998" y2="17.6894" gradientUnits="userSpaceOnUse">
<stop stop-color="#FF0000"/>
<stop offset="1" stop-color="#990000"/>
</linearGradient>
<linearGradient id="paint2_linear_6313_5339" x1="42.9129" y1="14.7932" x2="42.9129" y2="20.305" gradientUnits="userSpaceOnUse">
<stop stop-color="#FF0000"/>
<stop offset="1" stop-color="#990000"/>
</linearGradient>
<linearGradient id="paint3_linear_6313_5339" x1="54.4503" y1="26.2845" x2="54.4503" y2="31.8896" gradientUnits="userSpaceOnUse">
<stop stop-color="#FF0000"/>
<stop offset="1" stop-color="#990000"/>
</linearGradient>
<linearGradient id="paint4_linear_6313_5339" x1="57.1126" y1="33.1975" x2="57.1126" y2="38.8027" gradientUnits="userSpaceOnUse">
<stop stop-color="#FF0000"/>
<stop offset="1" stop-color="#990000"/>
</linearGradient>
<linearGradient id="paint5_linear_6313_5339" x1="54.4503" y1="40.1106" x2="54.4503" y2="45.7157" gradientUnits="userSpaceOnUse">
<stop stop-color="#FF0000"/>
<stop offset="1" stop-color="#990000"/>
</linearGradient>
<linearGradient id="paint6_linear_6313_5339" x1="42.9129" y1="51.6946" x2="42.9129" y2="57.2064" gradientUnits="userSpaceOnUse">
<stop stop-color="#FF0000"/>
<stop offset="1" stop-color="#990000"/>
</linearGradient>
<linearGradient id="paint7_linear_6313_5339" x1="35.9998" y1="54.3096" x2="35.9998" y2="59.9149" gradientUnits="userSpaceOnUse">
<stop stop-color="#FF0000"/>
<stop offset="1" stop-color="#990000"/>
</linearGradient>
<linearGradient id="paint8_linear_6313_5339" x1="29.0869" y1="51.6946" x2="29.0869" y2="57.2064" gradientUnits="userSpaceOnUse">
<stop stop-color="#FF0000"/>
<stop offset="1" stop-color="#990000"/>
</linearGradient>
<linearGradient id="paint9_linear_6313_5339" x1="17.5495" y1="40.1106" x2="17.5495" y2="45.7157" gradientUnits="userSpaceOnUse">
<stop stop-color="#FF0000"/>
<stop offset="1" stop-color="#990000"/>
</linearGradient>
<linearGradient id="paint10_linear_6313_5339" x1="14.8871" y1="33.1975" x2="14.8871" y2="38.8027" gradientUnits="userSpaceOnUse">
<stop stop-color="#FF0000"/>
<stop offset="1" stop-color="#990000"/>
</linearGradient>
<linearGradient id="paint11_linear_6313_5339" x1="17.5495" y1="26.2845" x2="17.5495" y2="31.8896" gradientUnits="userSpaceOnUse">
<stop stop-color="#FF0000"/>
<stop offset="1" stop-color="#990000"/>
</linearGradient>
<linearGradient id="paint12_linear_6313_5339" x1="36" y1="25.1633" x2="36" y2="46.8366" gradientUnits="userSpaceOnUse">
<stop stop-color="#FF9911"/>
<stop offset="1" stop-color="#FF6600"/>
</linearGradient>
<linearGradient id="paint13_linear_6313_5339" x1="35.9981" y1="42.1654" x2="35.9981" y2="29.834" gradientUnits="userSpaceOnUse">
<stop stop-color="#FBFBFB"/>
<stop offset="1" stop-color="#F9F9F9"/>
</linearGradient>
<clipPath id="clip0_6313_5339">
<rect width="56" height="56" fill="white" transform="translate(8 8)"/>
</clipPath>
</defs>
</svg>
