<svg width="126" height="60" viewBox="0 0 126 60" fill="none" xmlns="http://www.w3.org/2000/svg">
<g clip-path="url(#clip0_3958_2856)">
<path d="M56.4855 0L0.0249023 20.6239L56.4855 10.6523V0Z" fill="#FFE600"/>
<path d="M55.1585 45.6039C55.1585 44.5491 54.4435 44.0724 54.0351 43.9025C54.5456 43.63 54.886 43.0174 54.886 42.405C54.886 41.1458 54.0351 40.4311 52.5377 40.4311H49.3388V48.0205H52.5379C54.1715 48.0545 55.1585 47.1356 55.1585 45.6039ZM52.5379 46.761H50.7342V44.617H52.5379C53.2866 44.617 53.695 44.9913 53.695 45.706C53.695 46.3526 53.2526 46.761 52.5379 46.761ZM52.5039 43.3577H50.7342V41.7242H52.4358C53.1165 41.7242 53.4228 41.9964 53.4228 42.5409C53.4568 42.9153 53.2866 43.3577 52.5039 43.3577ZM56.1454 45.6379V42.5069H57.5067V45.5701C57.5067 46.489 57.8471 46.9314 58.5277 46.9314C59.2086 46.9314 59.5487 46.489 59.5487 45.5701V42.5069H60.91V48.0543H59.5487V47.6118C59.2086 47.9862 58.7659 48.1904 58.2214 48.1904C56.4177 48.1566 56.1454 46.5909 56.1454 45.6379ZM77.0414 48.0545H75.6803V42.5071H77.0414V42.9838C77.3817 42.6092 77.8584 42.405 78.4367 42.405C79.764 42.405 80.4787 43.2901 80.4787 44.9235V48.0545H79.1174V44.9913C79.1174 44.0724 78.8111 43.63 78.1304 43.63C77.4496 43.63 77.0754 44.1067 77.0754 44.9913V48.0545H77.0414ZM63.5305 45.2295V48.0543H62.1692V42.5069H63.5305V45.2295ZM64.7557 40.8733L66.117 40.1927V48.0543H64.7557V40.8733ZM70.4733 42.8815C70.1329 42.5412 69.7245 42.3708 69.2481 42.3708C67.9206 42.3708 67.07 43.4598 67.07 45.1955C67.07 47.0335 67.8868 48.1566 69.214 48.1566C69.6905 48.1566 70.0989 47.9862 70.4733 47.6121V48.0205H71.8346V40.1589L70.4733 40.8395V42.8815ZM69.5203 46.8972C69.0439 46.8972 68.4653 46.5909 68.4653 45.1955C68.4653 43.9025 69.0098 43.664 69.4863 43.664C69.9968 43.664 70.3031 43.9703 70.4735 44.2086V46.3867C70.2691 46.6249 70.0308 46.8972 69.5203 46.8972ZM100.32 42.3708C99.8777 42.3708 99.4353 42.5752 99.0949 42.8815V40.3288L97.7336 41.0097V48.0205H99.0949V47.6121C99.4353 47.9524 99.8777 48.1566 100.354 48.1566C101.715 48.1566 102.498 47.0675 102.498 45.1955C102.498 43.4598 101.681 42.3708 100.32 42.3708ZM100.082 43.63C100.592 43.63 101.103 44.0384 101.103 45.1617C101.103 46.3186 100.763 46.8631 100.082 46.8631C99.5712 46.8631 99.2311 46.5228 99.0947 46.3526V44.1745C99.3332 43.8342 99.6733 43.63 100.082 43.63ZM84.7671 42.8815C84.4267 42.5412 84.0183 42.3708 83.5419 42.3708C82.2146 42.3708 81.3638 43.4598 81.3638 45.1955C81.3638 47.0335 82.1806 48.1566 83.5079 48.1566C83.9845 48.1566 84.4267 47.9862 84.7671 47.6121V47.7482C84.7671 48.3608 84.7671 49.1776 82.9974 49.2116H82.9293L83.4058 50.3007H83.4398C85.2433 50.2666 86.1284 49.3818 86.1284 47.544V42.5069H84.7671V42.8815ZM84.7671 44.1745V46.3526C84.5629 46.6249 84.2906 46.8972 83.7801 46.8972C83.3034 46.8972 82.7589 46.5909 82.7589 45.1955C82.7589 43.9025 83.3034 43.664 83.7801 43.664C84.2906 43.63 84.5969 43.9363 84.7671 44.1745ZM90.3825 43.8682C90.8249 43.63 91.2333 43.4939 91.8119 43.4939C92.4585 43.4939 92.7991 43.7661 92.7991 44.2766V44.6512C92.4928 44.4808 92.0161 44.3787 91.6079 44.3787C90.5869 44.3787 89.3958 44.8554 89.3958 46.1825C89.3958 47.6118 90.5191 48.1564 91.438 48.1564C91.8123 48.1564 92.3909 48.0202 92.7652 47.5776V48.02H94.1266V44.2764C94.1266 43.0855 93.2757 42.3365 91.8802 42.3365C91.1317 42.3365 90.4508 42.5067 89.8042 42.881L90.3825 43.8682ZM90.7909 46.2165C90.7909 45.74 91.1312 45.4337 91.7438 45.4337C92.1522 45.4337 92.4925 45.5018 92.8329 45.706V46.4547C92.6627 46.761 92.2543 47.0335 91.7438 47.0335C91.1312 47.0335 90.7909 46.727 90.7909 46.2165ZM106.922 46.4207C106.684 46.6589 106.344 46.8974 105.833 46.8974C105.561 46.8974 104.676 46.7953 104.608 45.6722H108.011V45.2638C108.011 43.4941 107.092 42.3708 105.697 42.3708C104.268 42.3708 103.213 43.5962 103.213 45.2638C103.213 46.9995 104.234 48.1566 105.833 48.1566C106.548 48.1566 107.263 47.8841 107.773 47.2715L106.922 46.4207ZM104.608 44.685C104.642 44.0044 105.05 43.5279 105.629 43.5279C106.344 43.5279 106.65 44.1067 106.684 44.685H104.608ZM120.127 46.4207C119.889 46.6589 119.549 46.8974 119.038 46.8974C118.766 46.8974 117.881 46.7953 117.813 45.6722H121.216V45.2638C121.216 43.4941 120.297 42.3708 118.902 42.3708C117.473 42.3708 116.418 43.5962 116.418 45.2638C116.418 46.9995 117.439 48.1566 119.038 48.1566C119.753 48.1566 120.468 47.8841 121.012 47.2715L120.127 46.4207ZM117.813 44.685C117.847 44.0044 118.255 43.5279 118.834 43.5279C119.549 43.5279 119.855 44.1067 119.889 44.685H117.813ZM114.512 46.1144C114.512 46.5911 114.682 46.8631 115.09 46.8631C115.363 46.8631 115.669 46.761 115.907 46.6249L115.737 47.9181C115.43 48.0883 115.022 48.1904 114.58 48.1904C113.491 48.1904 113.116 47.2715 113.116 46.489V43.8004H112.3V42.5071H113.15V41.0778L114.512 40.3971V42.5069H115.771V43.8002H114.512V46.1144ZM111.857 47.9181C111.551 48.0883 111.143 48.1904 110.7 48.1904C109.611 48.1904 109.237 47.2715 109.237 46.489V43.8004H108.386V42.5071H109.237V41.0778L110.598 40.3971V42.5069H111.755V43.8002H110.598V46.1484C110.598 46.6249 110.768 46.8972 111.177 46.8972C111.449 46.8972 111.755 46.7951 111.994 46.6589L111.857 47.9181ZM125.368 44.0384C125.104 43.8371 124.781 43.7293 124.449 43.7321C123.769 43.7321 123.462 44.1405 123.462 45.0253V48.0202H122.101V42.4731H123.462V42.9496C123.803 42.5412 124.211 42.337 124.687 42.337C125.062 42.337 125.47 42.4729 125.708 42.6773L125.368 44.0384ZM63.5305 41.0097V41.6903H62.1692V40.329H63.5305V41.0097ZM73.0598 42.5069H74.4211V48.0543H73.0598V42.5069ZM74.4211 41.0097V41.6903H73.0598V40.329H74.4211V41.0097ZM112.027 52.5807C111.687 52.2403 111.279 52.0702 110.802 52.0702C109.475 52.0702 108.624 53.1592 108.624 54.8949C108.624 56.7327 109.441 57.8557 110.768 57.8557C111.245 57.8557 111.653 57.6856 112.027 57.3114V57.7198H113.389V49.858L112.027 50.5389V52.5807ZM111.074 56.5965C110.598 56.5965 110.019 56.2902 110.019 54.8951C110.019 53.6019 110.564 53.3636 111.04 53.3636C111.551 53.3636 111.857 53.6699 112.027 53.9079V56.086C111.823 56.2902 111.585 56.5965 111.074 56.5965ZM65.5383 53.7378C65.2745 53.5364 64.9512 53.4286 64.6194 53.4315C63.9387 53.4315 63.6324 53.8399 63.6324 54.7245V57.7196H62.2711V52.1723H63.6324V52.6487C63.9725 52.2403 64.3809 52.0361 64.8576 52.0361C65.232 52.0361 65.6404 52.1723 65.8786 52.3765L65.5383 53.7378ZM54.7498 52.1723H56.1112L54.5456 57.7196H53.3547L52.7421 55.4054C52.64 54.997 52.5039 54.5203 52.4358 54.2142C52.3675 54.4525 52.2316 55.1331 52.1295 55.4734L51.5169 57.7198H50.3598L48.7943 52.1725H50.1894L50.7001 54.2485C50.7682 54.5888 50.9043 55.2014 50.9724 55.6098C51.0405 55.2014 51.2106 54.5888 51.3127 54.2145L51.8913 52.1725H53.0484L53.627 54.2145C53.7291 54.589 53.8652 55.1674 53.9673 55.6098C54.0354 55.2695 54.1375 54.7247 54.2736 54.2145L54.7498 52.1723ZM58.9021 52.0702C57.4389 52.0702 56.3839 53.2953 56.3839 54.963C56.3839 56.6306 57.4389 57.8557 58.9021 57.8557C60.3655 57.8557 61.4205 56.6306 61.4205 54.963C61.4205 53.2615 60.3655 52.0702 58.9021 52.0702ZM58.9021 56.5627C58.2214 56.5627 57.779 55.9161 57.779 54.9632C57.779 53.9762 58.2214 53.3639 58.9021 53.3639C59.5829 53.3639 60.0254 54.0103 60.0254 54.9632C60.0254 55.9161 59.5827 56.5627 58.9021 56.5627ZM105.289 53.7378C105.025 53.5364 104.702 53.4286 104.37 53.4315C103.689 53.4315 103.383 53.8399 103.383 54.7245V57.7196H102.022V52.1723H103.383V52.6487C103.723 52.2403 104.132 52.0361 104.608 52.0361C104.983 52.0361 105.391 52.1723 105.629 52.3765L105.289 53.7378ZM94.5345 52.1723H95.8958L94.3303 57.7196H93.1392L92.5266 55.4054C92.4245 54.997 92.2883 54.5203 92.2203 54.2142C92.1522 54.4525 92.0161 55.1331 91.914 55.4734L91.3014 57.7198H90.1102V57.6858L88.5449 52.1725H89.9401L90.4506 54.2485C90.5189 54.5888 90.6548 55.2014 90.7231 55.6098C90.7911 55.2014 90.9611 54.5888 91.0632 54.2145L91.6419 52.1725H92.7991L93.3776 54.2145C93.4797 54.589 93.6158 55.1674 93.7179 55.6098C93.786 55.2695 93.8881 54.7247 94.0242 54.2145L94.5345 52.1723ZM98.6525 52.0702C97.1891 52.0702 96.1341 53.2953 96.1341 54.963C96.1341 56.6306 97.1891 57.8557 98.6525 57.8557C100.116 57.8557 101.171 56.6306 101.171 54.963C101.171 53.2953 100.116 52.0702 98.6525 52.0702ZM98.6525 56.5627C97.9718 56.5627 97.5294 55.9501 97.5294 54.9632C97.5294 53.9762 97.9718 53.3639 98.6525 53.3639C99.3334 53.3639 99.7756 54.0103 99.7756 54.9632C99.7756 55.9161 99.3332 56.5627 98.6525 56.5627ZM69.6224 54.01L71.3241 57.7198H69.8266L68.6695 55.1331L67.9548 56.0522V57.7198H66.5935V50.5727L67.9548 49.8921V54.3163C68.1195 54.0854 68.2898 53.8585 68.4653 53.6357L69.5544 52.2063H71.1199L69.6224 54.01ZM76.1225 57.7198H74.7612V52.1723H76.1225V52.6487C76.4628 52.2744 76.9393 52.0702 77.5178 52.0702C78.8451 52.0702 79.5598 52.9552 79.5598 54.5886V57.7196H78.1985V54.6564C78.1985 53.7375 77.8922 53.2951 77.2115 53.2951C76.5307 53.2951 76.1565 53.7718 76.1565 54.6564V57.7196L76.1225 57.7198ZM83.8482 52.5807C83.5079 52.2403 83.0995 52.0702 82.623 52.0702C81.2955 52.0702 80.4449 53.1592 80.4449 54.8949C80.4449 56.7327 81.2617 57.8557 82.589 57.8557C83.0654 57.8557 83.5079 57.6856 83.8482 57.3114V57.4474C83.8482 58.0599 83.8482 58.8767 82.0785 58.9108H82.0102L82.4869 59.9998H82.5209C84.3244 59.9658 85.2095 59.0807 85.2095 57.2429V52.2061H83.8482V52.5807ZM83.8482 53.8741V56.0522C83.644 56.3245 83.3715 56.5965 82.861 56.5965C82.3845 56.5965 81.84 56.2902 81.84 54.8951C81.84 53.6019 82.3845 53.3636 82.861 53.3636C83.3715 53.3294 83.6778 53.6357 83.8482 53.8741ZM72.1409 52.1723H73.5022V57.7198H72.1409V52.1723ZM73.5022 50.7088V51.3897H72.1409V50.0284H73.5022V50.7088ZM106.31 50.5727L107.671 49.8921V57.7198H106.31V50.5727ZM9.0779 46.4547H19.3896V40.4649H9.0779V35.7684H20.5127L16.7353 29.166H0.535645V57.7198H23.3717V51.1513H9.0779V46.4547ZM38.5844 29.166L33.7518 38.491L28.9189 29.166H19.4237L29.3953 46.4547V57.7198H37.9376V46.4547L47.909 29.166H38.5844Z" fill="#161D23"/>
</g>
<defs>
<clipPath id="clip0_3958_2856">
<rect width="125.733" height="60" fill="white"/>
</clipPath>
</defs>
</svg>
