<svg width="40" height="40" viewBox="0 0 40 40" fill="none" xmlns="http://www.w3.org/2000/svg">
<g id="Group 627813">
<path id="Vector" d="M39.134 22.1031C40.2887 20.9485 40.2887 19.0515 39.134 17.8969C38.268 17.0309 38.0206 15.7526 38.4742 14.6392C39.0928 13.1134 38.3918 11.3814 36.866 10.7216C35.7526 10.268 35.0103 9.15464 35.0103 7.95876C35.0103 6.30928 33.6907 4.98969 32.0412 4.98969C30.8454 4.98969 29.732 4.24742 29.2784 3.13402C28.6598 1.60825 26.8866 0.865979 25.3608 1.52577C24.2474 1.97938 22.9691 1.73196 22.1031 0.865979C20.9485 -0.28866 19.0515 -0.28866 17.8969 0.865979C17.0309 1.73196 15.7526 1.97938 14.6392 1.52577C13.1134 0.907217 11.3814 1.60825 10.7216 3.13402C10.268 4.24742 9.15464 4.98969 7.95876 4.98969C6.30928 4.98969 4.98969 6.30928 4.98969 7.95876C4.98969 9.15464 4.24742 10.268 3.13402 10.7216C1.60825 11.3402 0.865979 13.1134 1.52577 14.6392C1.97938 15.7526 1.73196 17.0309 0.865979 17.8969C-0.28866 19.0515 -0.28866 20.9485 0.865979 22.1031C1.73196 22.9691 1.97938 24.2474 1.52577 25.3608C0.907217 26.8866 1.60825 28.6186 3.13402 29.2784C4.24742 29.732 4.98969 30.8454 4.98969 32.0412C4.98969 33.6907 6.30928 35.0103 7.95876 35.0103C9.15464 35.0103 10.268 35.7526 10.7216 36.866C11.3402 38.3918 13.1134 39.134 14.6392 38.4742C15.7526 38.0206 17.0309 38.268 17.8969 39.134C19.0515 40.2887 20.9485 40.2887 22.1031 39.134C22.9691 38.268 24.2474 38.0206 25.3608 38.4742C26.8866 39.0928 28.6186 38.3918 29.2784 36.866C29.732 35.7526 30.8454 35.0103 32.0412 35.0103C33.6907 35.0103 35.0103 33.6907 35.0103 32.0412C35.0103 30.8454 35.7526 29.732 36.866 29.2784C38.3918 28.6598 39.134 26.8866 38.4742 25.3608C38.0206 24.2474 38.268 22.9691 39.134 22.1031Z" fill="#C0D3BB"/>
<path id="Vector_2" d="M20 35.9585C28.8138 35.9585 35.9588 28.8136 35.9588 19.9998C35.9588 11.186 28.8138 4.04102 20 4.04102C11.1862 4.04102 4.04126 11.186 4.04126 19.9998C4.04126 28.8136 11.1862 35.9585 20 35.9585Z" fill="#5CA34B"/>
<g id="Group">
<path id="Vector_3" d="M8.24744 23.2577H9.73197V20.7009H12.6186V19.4226H9.73197V18.0205H12.7423V16.7422H8.24744V23.2577ZM19.299 18.8865C19.299 18.1442 19.0928 17.5669 18.6392 17.237C18.1856 16.9071 17.4846 16.7422 16.4536 16.7422H13.9794V23.2989H15.4639V21.1958H16.4949L17.9382 23.2989H19.7526L18.1031 20.9484C18.8866 20.6185 19.299 19.9587 19.299 18.8865ZM17.5258 19.67C17.3608 19.835 16.9897 19.9174 16.4949 19.9174H15.4639V17.9793H16.5773C17.0309 17.9793 17.3608 18.0618 17.567 18.1855C17.7732 18.3092 17.8557 18.5566 17.8557 18.9278C17.8557 19.2989 17.732 19.5051 17.5258 19.67ZM22.2681 20.6185H25.1959V19.3814H22.2681V18.0205H25.5258V16.7422H20.7835V23.2577H25.6083V21.9793H22.2681V20.6185ZM28.3712 21.9793V20.6185H31.299V19.3814H28.3712V18.0205H31.6289V16.7422H26.9279V23.2577H31.7526V21.9793H28.3712Z" fill="white"/>
</g>
</g>
</svg>
