<svg width="78" height="40" viewBox="0 0 75 25" fill="none" xmlns="http://www.w3.org/2000/svg">
    <g style="mix-blend-mode:luminosity" clip-path="url(#clip0_611_14449)">
        <path
            d="M9.35097 0.00195312H10.0083C12.2904 0.0515637 14.5353 0.969359 16.1476 2.5941C15.5523 3.20183 14.9446 3.78476 14.3616 4.39249C13.4562 3.57391 12.3648 2.94138 11.1742 2.71813C9.41298 2.34605 7.51538 2.68092 6.03946 3.68554C4.42712 4.73976 3.33569 6.52574 3.10004 8.43575C2.83958 10.3209 3.3729 12.3054 4.60076 13.7689C5.77901 15.1952 7.57739 16.0882 9.43779 16.1502C11.1742 16.2494 12.9849 15.7161 14.25 14.5006C15.2422 13.6449 15.7011 12.3426 15.8499 11.0775C13.7911 11.0775 11.7323 11.0899 9.67344 11.0775V8.52256H18.3429C18.7894 11.2635 18.1444 14.3518 16.0608 16.3114C14.6717 17.7005 12.7493 18.5191 10.7897 18.6803C8.89207 18.8664 6.93245 18.5067 5.24569 17.5889C3.22406 16.5099 1.61172 14.6867 0.817953 12.541C0.0737943 10.569 0.0613917 8.33652 0.755939 6.3521C1.38847 4.54132 2.60393 2.94138 4.16666 1.82514C5.66738 0.721306 7.49057 0.113577 9.35097 0.00195312Z"
            fill="white" />
        <path
            d="M59.085 0.646484H61.7391V18.3574C60.8585 18.3574 59.9655 18.3698 59.085 18.345C59.0974 12.4538 59.085 6.55014 59.085 0.646484Z"
            fill="white" />
        <path
            d="M24.2467 6.7858C25.8839 6.47574 27.6574 6.82301 29.0093 7.80282C30.2372 8.671 31.093 10.0353 31.3534 11.5236C31.6883 13.2476 31.2666 15.1328 30.1504 16.4971C28.9473 18.0226 26.9753 18.8412 25.0529 18.7171C23.2917 18.6179 21.5801 17.7373 20.5383 16.2986C19.3601 14.7111 19.0748 12.5282 19.7197 10.6678C20.3647 8.671 22.1879 7.14548 24.2467 6.7858ZM24.6188 9.1423C23.949 9.31594 23.3289 9.70042 22.8824 10.2461C21.6794 11.6848 21.7538 14.0289 23.0809 15.3684C23.8374 16.1374 24.9785 16.4971 26.0327 16.2862C27.0125 16.1126 27.8683 15.4552 28.3396 14.5871C29.1582 13.1111 28.9225 11.0771 27.6698 9.92367C26.8637 9.17951 25.6854 8.86944 24.6188 9.1423Z"
            fill="white" />
        <path
            d="M37.3932 6.78671C39.266 6.42704 41.3124 6.94795 42.7139 8.26263C44.996 10.3091 45.2441 14.1415 43.2969 16.498C42.1186 17.9863 40.2086 18.8049 38.3234 18.7181C36.525 18.6684 34.7514 17.7754 33.6848 16.2995C32.4818 14.6748 32.2213 12.4423 32.9034 10.5447C33.5856 8.6099 35.3716 7.13399 37.3932 6.78671ZM37.7653 9.14322C37.0955 9.31685 36.4754 9.70133 36.0289 10.2346C34.8383 11.6485 34.8879 13.9554 36.1653 15.3073C36.9219 16.1135 38.1002 16.5104 39.1916 16.2871C40.159 16.1011 41.0272 15.4562 41.4985 14.588C42.3046 13.0997 42.069 11.0656 40.8039 9.91218C39.9978 9.16802 38.8195 8.87036 37.7653 9.14322Z"
            fill="white" />
        <path
            d="M48.5428 7.50645C49.9691 6.61346 51.8667 6.36541 53.4046 7.13437C53.8883 7.34522 54.2852 7.7049 54.6697 8.06457C54.6821 7.7297 54.6697 7.38243 54.6821 7.03515C55.5131 7.04756 56.344 7.03515 57.1874 7.04756V17.9867C57.175 19.6362 56.7533 21.385 55.5627 22.5881C54.2604 23.9151 52.2636 24.3244 50.4652 24.0516C48.5428 23.7663 46.8684 22.3648 46.1243 20.5912C46.8684 20.2316 47.6498 19.9463 48.4187 19.6114C48.8528 20.6284 49.7334 21.4966 50.8373 21.6951C51.9411 21.8935 53.2186 21.6207 53.9379 20.7029C54.7069 19.7603 54.7069 18.4704 54.6697 17.3169C54.0991 17.8751 53.4418 18.3712 52.648 18.5572C50.9241 19.0409 49.0265 18.4456 47.6994 17.2797C46.3599 16.1139 45.5661 14.3155 45.6406 12.5295C45.6778 10.5079 46.8188 8.56068 48.5428 7.50645ZM51.1101 9.09399C50.3536 9.21802 49.6466 9.63971 49.1629 10.2226C47.9971 11.6117 47.9971 13.8318 49.1753 15.1961C49.845 16.0023 50.9241 16.4488 51.9659 16.3371C52.9457 16.2379 53.8511 15.6178 54.3348 14.762C55.1534 13.3109 55.0169 11.3389 53.9131 10.0738C53.231 9.29243 52.1395 8.90795 51.1101 9.09399Z"
            fill="white" />
        <path
            d="M64.9264 8.13892C66.4147 6.74982 68.7092 6.27852 70.6192 7.01028C72.43 7.69242 73.5834 9.41639 74.1664 11.19C71.475 12.3062 68.796 13.41 66.1046 14.5263C66.4767 15.2332 67.0472 15.8782 67.8162 16.1386C68.8952 16.5231 70.1851 16.3867 71.0905 15.6673C71.4502 15.3945 71.7354 15.0348 72.0083 14.6875C72.6904 15.1464 73.3726 15.5929 74.0547 16.0518C73.0873 17.5029 71.4626 18.5199 69.7138 18.6812C67.779 18.9168 65.7202 18.1726 64.4675 16.6595C62.4087 14.2782 62.6071 10.2846 64.9264 8.13892ZM66.2535 10.4334C65.8318 11.0411 65.6581 11.7853 65.6706 12.517C67.4689 11.7729 69.2673 11.0287 71.0657 10.2722C70.768 9.57762 70.0487 9.15593 69.3169 9.04431C68.1387 8.83346 66.9108 9.466 66.2535 10.4334Z"
            fill="white" />
    </g>
    <defs>
        <clipPath id="clip0_611_14449">
            <rect width="73.9197" height="24.1274" fill="white" transform="translate(0.24707)" />
        </clipPath>
    </defs>
</svg>