<svg width="99" height="25" viewBox="0 0 99 25" fill="none" xmlns="http://www.w3.org/2000/svg">
    <g style="mix-blend-mode:luminosity" clip-path="url(#clip0_611_14469)">
        <path
            d="M97.2668 21.6641C96.8351 21.6682 96.4226 21.8432 96.1195 22.1507C95.8164 22.4582 95.6474 22.8732 95.6495 23.3049C95.6516 23.7367 95.8245 24.15 96.1306 24.4546C96.4366 24.7591 96.8508 24.9301 97.2825 24.9301C97.7143 24.9301 98.1284 24.7591 98.4345 24.4546C98.7405 24.15 98.9135 23.7367 98.9155 23.3049C98.9176 22.8732 98.7486 22.4582 98.4455 22.1507C98.1425 21.8432 97.7299 21.6682 97.2982 21.6641H97.2668ZM97.2668 24.7431C96.9836 24.7479 96.7054 24.6685 96.4673 24.5151C96.2293 24.3617 96.042 24.1411 95.9293 23.8813C95.8166 23.6215 95.7835 23.3341 95.8341 23.0554C95.8847 22.7768 96.0168 22.5194 96.2137 22.3158C96.4106 22.1123 96.6635 21.9716 96.9403 21.9118C97.2171 21.8519 97.5054 21.8755 97.7689 21.9795C98.0323 22.0835 98.2589 22.2633 98.4202 22.4961C98.5814 22.7289 98.67 23.0043 98.6747 23.2875V23.3115C98.6827 23.683 98.5427 24.0424 98.2857 24.3108C98.0287 24.5791 97.6756 24.7343 97.3041 24.7424H97.2672M90.9982 21.2179H87.4497V15.6609C87.4497 14.3357 87.426 12.6299 85.6041 12.6299C83.7559 12.6299 83.4732 14.0736 83.4732 15.5644V21.2176H79.9247V9.78996H83.3312V11.3517H83.3789C83.7198 10.7688 84.2124 10.2892 84.8043 9.96418C85.3962 9.63911 86.0652 9.48066 86.74 9.50571C90.3365 9.50571 90.9996 11.8714 90.9996 14.9489L90.9982 21.2179ZM75.9208 8.22788C75.5135 8.22796 75.1154 8.10726 74.7767 7.88105C74.438 7.65484 74.174 7.33327 74.0181 6.95703C73.8622 6.58078 73.8213 6.16674 73.9007 5.76728C73.9801 5.36781 74.1761 5.00086 74.4641 4.71282C74.752 4.42478 75.1189 4.22859 75.5183 4.14906C75.9178 4.06953 76.3318 4.11024 76.7081 4.26603C77.0844 4.42182 77.4061 4.6857 77.6324 5.0243C77.8587 5.3629 77.9796 5.761 77.9797 6.16828C77.9797 6.4387 77.9265 6.70649 77.8231 6.95634C77.7196 7.2062 77.568 7.43324 77.3768 7.62449C77.1856 7.81574 76.9586 7.96746 76.7088 8.07099C76.459 8.17452 76.1912 8.22784 75.9208 8.22788ZM77.695 21.2179H74.1429V9.78996H77.695V21.2179ZM92.7672 0.814131H72.3597C71.8965 0.808904 71.4502 0.987783 71.1189 1.31146C70.7875 1.63514 70.5982 2.07714 70.5925 2.54032V23.0325C70.598 23.4959 70.7872 23.9382 71.1185 24.2622C71.4499 24.5862 71.8963 24.7654 72.3597 24.7605H92.7672C93.2316 24.7663 93.6793 24.5876 94.0119 24.2636C94.3446 23.9396 94.5351 23.4968 94.5415 23.0325V2.53884C94.5349 2.07474 94.3443 1.63224 94.0116 1.30857C93.6789 0.9849 93.2314 0.806531 92.7672 0.812652M60.9343 12.5482C59.1601 12.5482 58.0956 13.7328 58.0956 15.459C58.0956 17.1852 59.1597 18.371 60.9343 18.371C62.709 18.371 63.7757 17.1882 63.7757 15.459C63.7757 13.7299 62.7108 12.5482 60.9343 12.5482ZM67.0425 21.2113H63.7757V19.6958H63.7273C63.3175 20.247 62.7859 20.6962 62.174 21.0083C61.5621 21.3204 60.8864 21.487 60.1995 21.4952C56.79 21.4952 54.5441 19.0345 54.5441 15.5548C54.5441 12.3589 56.5316 9.42439 59.7988 9.42439C61.2674 9.42439 62.6391 9.82618 63.4438 10.9399H63.4904V4.35264H67.0422L67.0425 21.2113ZM49.988 14.1705C49.9948 13.8826 49.9431 13.5963 49.836 13.329C49.7289 13.0617 49.5686 12.8189 49.3649 12.6154C49.1612 12.4118 48.9183 12.2517 48.6509 12.1448C48.3836 12.0379 48.0973 11.9864 47.8094 11.9933C47.1894 11.9548 46.579 12.1614 46.1099 12.5686C45.6409 12.9759 45.3506 13.5512 45.3018 14.1705H49.988ZM52.9939 19.2345C52.4042 19.9495 51.6629 20.5245 50.8236 20.9177C49.9843 21.311 49.0681 21.5126 48.1413 21.5081C44.5928 21.5081 41.7518 19.1395 41.7518 15.4716C41.7518 11.8037 44.5924 9.43622 48.1413 9.43622C51.458 9.43622 53.538 11.8019 53.538 15.4716V16.5842H45.3018C45.4043 17.2152 45.7314 17.7879 46.2229 18.1967C46.7143 18.6056 47.337 18.823 47.9761 18.809C48.4812 18.8059 48.9774 18.6765 49.4197 18.4326C49.862 18.1887 50.2363 17.838 50.5084 17.4126L52.9939 19.2345ZM17.7182 9.787H21.1259V11.3487H21.1743C21.5146 10.7656 22.007 10.2858 22.5988 9.96071C23.1906 9.63559 23.8595 9.4773 24.5342 9.50275C28.1326 9.50275 28.795 11.8703 28.795 14.946V21.2128H25.2465V15.6568C25.2465 14.3305 25.2221 12.6258 23.3984 12.6258C21.5539 12.6258 21.2693 14.07 21.2693 15.5603V21.2113H17.7208L17.7182 9.787ZM30.5944 4.35375H34.1429V14.4318L38.1645 9.78072H42.5151L37.8577 15.0713L42.4171 21.2183H37.9571L34.1902 15.5696H34.1436V21.2176H30.5951L30.5944 4.35375ZM12.2021 9.78589H15.7506V21.2135H12.2021V9.78589ZM13.9764 4.10461C14.3835 4.10469 14.7815 4.22548 15.1199 4.45171C15.4584 4.67795 15.7222 4.99947 15.8779 5.37561C16.0337 5.75176 16.0744 6.16564 15.9949 6.56493C15.9154 6.96421 15.7194 7.33096 15.4315 7.61881C15.1436 7.90666 14.7768 8.10268 14.3775 8.18207C13.9782 8.26147 13.5643 8.22068 13.1882 8.06487C12.8121 7.90906 12.4906 7.64522 12.2644 7.30671C12.0382 6.9682 11.9175 6.57022 11.9175 6.16311C11.9175 5.89275 11.9708 5.62504 12.0743 5.37527C12.1777 5.1255 12.3294 4.89856 12.5206 4.7074C12.7118 4.51625 12.9387 4.36463 13.1885 4.2612C13.4383 4.15777 13.706 4.10457 13.9764 4.10461ZM0.0371094 4.35634H3.73086V17.811H10.5691V21.2198H0.0371094V4.35634ZM97.5259 23.4006C97.5867 23.4012 97.6469 23.3893 97.7029 23.3657C97.7589 23.3421 97.8094 23.3072 97.8514 23.2632C97.8933 23.2192 97.9258 23.1671 97.9467 23.11C97.9677 23.053 97.9767 22.9922 97.9732 22.9316C97.9732 22.5989 97.7725 22.4399 97.3607 22.4399H96.6954V24.1817H96.9456V23.4224H97.2531L97.2601 23.4317L97.7374 24.1817H98.005L97.4915 23.4054L97.5259 23.4006ZM97.2365 23.2262H96.9463V22.6373H97.3141C97.5041 22.6373 97.7207 22.6684 97.7207 22.9171C97.7207 23.2032 97.5015 23.2262 97.235 23.2262"
            fill="white" />
    </g>
    <defs>
        <clipPath id="clip0_611_14469">
            <rect width="98.8828" height="24.1274" fill="white"
                transform="translate(0.0371094 0.808594)" />
        </clipPath>
    </defs>
</svg>