<svg width="114" height="25" viewBox="0 0 114 25" fill="none" xmlns="http://www.w3.org/2000/svg">
    <g clip-path="url(#clip0_611_14462)">
        <path
            d="M113.037 11.7232V9.73665H110.57V6.6484L110.487 6.67396L108.17 7.3829L108.124 7.39678V9.73676H104.467V8.43319C104.467 7.8262 104.603 7.3617 104.87 7.05192C105.136 6.74586 105.516 6.59026 106 6.59026C106.349 6.59026 106.709 6.67233 107.072 6.83415L107.163 6.8748V4.78274L107.12 4.76701C106.782 4.64528 106.321 4.58398 105.75 4.58398C105.031 4.58398 104.377 4.74057 103.807 5.05089C103.236 5.36165 102.788 5.80528 102.473 6.36932C102.16 6.93271 102.001 7.58341 102.001 8.30349V9.73665H100.283V11.7232H102.001V20.0919H104.467V11.7232H108.124V17.0414C108.124 19.2317 109.157 20.3416 111.195 20.3416C111.529 20.3416 111.882 20.3024 112.242 20.2256C112.608 20.1467 112.857 20.0679 113.004 19.9838L113.037 19.9645V17.9597L112.936 18.026C112.802 18.1151 112.636 18.188 112.44 18.2422C112.244 18.2974 112.08 18.3251 111.953 18.3251C111.476 18.3251 111.123 18.1964 110.904 17.9426C110.682 17.6865 110.57 17.2386 110.57 16.6121V11.7232H113.037ZM94.7766 18.3254C93.8816 18.3254 93.1759 18.0286 92.6786 17.444C92.1783 16.8565 91.9248 16.0188 91.9248 14.9546C91.9248 13.8565 92.1783 12.9971 92.6788 12.3992C93.1764 11.8052 93.8753 11.5037 94.7565 11.5037C95.6115 11.5037 96.2921 11.7917 96.7797 12.36C97.2696 12.9312 97.5183 13.7837 97.5183 14.8946C97.5183 16.0191 97.2845 16.8828 96.8234 17.4606C96.3654 18.0341 95.6768 18.3254 94.7766 18.3254ZM94.8862 9.48719C93.1786 9.48719 91.8224 9.98753 90.8554 10.9743C89.889 11.9613 89.399 13.327 89.399 15.034C89.399 16.6553 89.8773 17.9594 90.8207 18.9095C91.7641 19.86 93.0481 20.3414 94.6365 20.3414C96.2917 20.3414 97.6209 19.8341 98.5875 18.8336C99.554 17.8342 100.044 16.4814 100.044 14.8143C100.044 13.1676 99.5842 11.8537 98.6776 10.91C97.7705 9.96579 96.4947 9.48719 94.8862 9.48719ZM85.4233 9.48719C84.2618 9.48719 83.301 9.78429 82.567 10.3701C81.8286 10.9594 81.454 11.7322 81.454 12.6675C81.454 13.1536 81.5349 13.5854 81.694 13.9517C81.854 14.3192 82.1017 14.6427 82.4309 14.9142C82.7575 15.1836 83.2616 15.4657 83.9297 15.7528C84.4913 15.9839 84.9102 16.1793 85.1762 16.3334C85.4363 16.4844 85.6208 16.6362 85.7251 16.784C85.8264 16.9287 85.8777 17.1267 85.8777 17.371C85.8777 18.0667 85.3567 18.4053 84.2847 18.4053C83.8871 18.4053 83.4335 18.3222 82.9367 18.1585C82.4433 17.9973 81.9777 17.7612 81.5562 17.4586L81.4538 17.3851V19.7592L81.4914 19.7767C81.8403 19.9377 82.2802 20.0736 82.7987 20.1804C83.3162 20.2874 83.7863 20.3418 84.1948 20.3418C85.4552 20.3418 86.4702 20.0433 87.2108 19.454C87.9561 18.8607 88.3339 18.0696 88.3339 17.102C88.3339 16.404 88.1305 15.8054 87.7297 15.3227C87.3317 14.8439 86.6408 14.4043 85.6771 14.0157C84.9094 13.7076 84.4176 13.4518 84.2147 13.2554C84.0191 13.0657 83.9198 12.7975 83.9198 12.4578C83.9198 12.1566 84.0424 11.9154 84.294 11.72C84.5476 11.5236 84.9007 11.4238 85.3434 11.4238C85.7543 11.4238 86.1746 11.4887 86.5927 11.6159C87.0104 11.743 87.3773 11.9134 87.6836 12.1218L87.7844 12.1906V9.93858L87.7457 9.92197C87.4631 9.80079 87.0905 9.6971 86.6379 9.61296C86.1874 9.52937 85.7787 9.48719 85.4233 9.48719ZM75.0256 18.3254C74.1308 18.3254 73.4249 18.0286 72.9278 17.444C72.4273 16.8565 72.1743 16.019 72.1743 14.9546C72.1743 13.8565 72.4277 12.9971 72.9283 12.3992C73.4255 11.8052 74.1243 11.5037 75.0058 11.5037C75.8605 11.5037 76.5412 11.7917 77.0288 12.36C77.5189 12.9312 77.7675 13.7837 77.7675 14.8946C77.7675 16.0191 77.5336 16.8828 77.0724 17.4606C76.6145 18.0341 75.9262 18.3254 75.0256 18.3254ZM75.1355 9.48719C73.4276 9.48719 72.0712 9.98753 71.1047 10.9743C70.1384 11.9613 69.6481 13.327 69.6481 15.034C69.6481 16.656 70.1267 17.9594 71.0701 18.9095C72.0135 19.86 73.2973 20.3414 74.8858 20.3414C76.5407 20.3414 77.8703 19.8341 78.8369 18.8336C79.8032 17.8342 80.293 16.4814 80.293 14.8143C80.293 13.1676 79.8334 11.8537 78.9266 10.91C78.0194 9.96579 76.7438 9.48719 75.1355 9.48719ZM65.905 11.53V9.73665H63.4692V20.0917H65.905V14.7947C65.905 13.894 66.1092 13.154 66.5122 12.5951C66.91 12.0429 67.4402 11.763 68.0875 11.763C68.3069 11.763 68.5532 11.7992 68.8199 11.8708C69.0839 11.9419 69.2751 12.0192 69.3879 12.1005L69.4903 12.1747V9.71895L69.4508 9.70202C69.224 9.60564 68.9031 9.55702 68.497 9.55702C67.8849 9.55702 67.3372 9.7537 66.868 10.1409C66.4561 10.4813 66.1585 10.948 65.9309 11.53H65.905ZM59.107 9.48719C57.9896 9.48719 56.9928 9.72682 56.145 10.1992C55.2954 10.6726 54.6384 11.3486 54.1914 12.2081C53.7463 13.0655 53.5204 14.0671 53.5204 15.184C53.5204 16.1624 53.7394 17.0603 54.1725 17.8516C54.6057 18.6442 55.2189 19.2643 55.9952 19.6944C56.7703 20.1239 57.6662 20.3417 58.6582 20.3417C59.8158 20.3417 60.8041 20.1103 61.5965 19.6539L61.6285 19.6355V17.4039L61.5261 17.4787C61.1672 17.7401 60.7661 17.9488 60.3345 18.0992C59.9039 18.2494 59.5115 18.3254 59.1673 18.3254C58.2115 18.3254 57.4442 18.0263 56.8873 17.4367C56.3291 16.8463 56.0461 16.0173 56.0461 14.9741C56.0461 13.9244 56.3412 13.074 56.9229 12.4466C57.5028 11.8211 58.2715 11.5037 59.2075 11.5037C60.0081 11.5037 60.7883 11.7748 61.5264 12.3103L61.6285 12.3844V10.0331L61.5955 10.0145C61.3178 9.85903 60.9389 9.73064 60.4686 9.63329C60.0003 9.53615 59.5423 9.48719 59.107 9.48719ZM51.8428 9.73676H49.4069V20.0917H51.8428V9.73676ZM50.6498 5.32548C50.2489 5.32548 49.8992 5.46196 49.6119 5.7324C49.3235 6.0036 49.1772 6.34507 49.1772 6.74805C49.1772 7.14469 49.3217 7.47993 49.6075 7.74392C49.8913 8.00715 50.2421 8.14057 50.6499 8.14057C51.0576 8.14057 51.4096 8.00715 51.6969 7.74436C51.986 7.47993 52.1327 7.1448 52.1327 6.74805C52.1327 6.35916 51.99 6.02119 51.7088 5.74332C51.4279 5.466 51.0714 5.32548 50.6498 5.32548ZM44.5723 8.97276V20.0917H47.0581V5.64247H43.6176L39.2444 16.3749L35.0005 5.64247H31.4199V20.0916H33.756V8.97166H33.8362L38.3176 20.0917H40.0805L44.492 8.97276H44.5723Z"
            fill="white" />
        <path d="M11.5398 12.2732H0.0810547V0.814453H11.5398V12.2732Z" fill="#F1511B" />
        <path d="M24.192 12.2732H12.7334V0.814453H24.192V12.2732Z" fill="#80CC28" />
        <path d="M11.5395 24.9294H0.0810547V13.4707H11.5395V24.9294Z" fill="#00ADEF" />
        <path d="M24.192 24.9294H12.7334V13.4707H24.192V24.9294Z" fill="#FBBC09" />
    </g>
    <defs>
        <clipPath id="clip0_611_14462">
            <rect width="112.956" height="24.1274" fill="white"
                transform="translate(0.0810547 0.808594)" />
        </clipPath>
    </defs>
</svg>