<svg width="40" height="40" viewBox="0 0 40 40" fill="none" xmlns="http://www.w3.org/2000/svg">
<g id="pocket-freindly">
<path id="Vector" d="M5.89917 14.8684V8.34242C5.89916 8.12457 5.95988 7.91104 6.0745 7.72578C6.18913 7.54053 6.35312 7.39089 6.54808 7.29367L19.4771 0.846797C19.6395 0.765796 19.8185 0.723633 20 0.723633C20.1815 0.723633 20.3606 0.765796 20.523 0.846797L33.4519 7.29367C33.6469 7.39088 33.8109 7.54051 33.9255 7.72577C34.0402 7.91102 34.1009 8.12457 34.1009 8.34242V14.6648L20 21.4618L5.89917 14.8684Z" fill="#8F85FF"/>
<path id="Vector_2" d="M33.4519 7.29367L20.523 0.846797C20.3605 0.765796 20.1815 0.723633 20 0.723633C19.8185 0.723633 19.6394 0.765796 19.477 0.846797L18.2422 1.4625L29.9363 7.29375C30.1313 7.39096 30.2952 7.54059 30.4099 7.72583C30.5245 7.91107 30.5852 8.12459 30.5852 8.34242V14.6648L18.2155 20.6274L20 21.4618L34.1008 14.6648V8.34234C34.1009 8.1245 34.0401 7.91096 33.9255 7.7257C33.8109 7.54045 33.6469 7.39089 33.4519 7.29367Z" fill="#7167E8"/>
<path id="Vector_3" d="M20 20.876C23.8617 20.876 26.9922 17.7455 26.9922 13.8838C26.9922 10.0221 23.8617 6.8916 20 6.8916C16.1383 6.8916 13.0078 10.0221 13.0078 13.8838C13.0078 17.7455 16.1383 20.876 20 20.876Z" fill="#FFE85A"/>
<path id="Vector_4" d="M20 6.8916C19.6073 6.89163 19.2153 6.92453 18.8281 6.98996C20.4561 7.26687 21.9335 8.11095 22.9987 9.37271C24.064 10.6345 24.6484 12.2325 24.6484 13.8838C24.6484 15.5351 24.064 17.1332 22.9987 18.3949C21.9335 19.6567 20.4561 20.5008 18.8281 20.7777C19.7823 20.9399 20.7597 20.9023 21.6985 20.6672C22.6374 20.4321 23.5172 20.0047 24.2823 19.412C25.0474 18.8192 25.6812 18.0742 26.1434 17.2238C26.6057 16.3735 26.8864 15.4365 26.9678 14.4721C27.0492 13.5077 26.9295 12.5369 26.6163 11.6212C26.303 10.7054 25.8031 9.86465 25.1482 9.1521C24.4932 8.43954 23.6975 7.87071 22.8113 7.48161C21.9251 7.0925 20.9678 6.89159 20 6.8916Z" fill="#E6CF40"/>
<path id="Vector_5" d="M21.688 11.3428H18.312C18.1566 11.3428 18.0075 11.281 17.8976 11.1712C17.7877 11.0613 17.726 10.9122 17.726 10.7568C17.726 10.6014 17.7877 10.4524 17.8976 10.3425C18.0075 10.2326 18.1566 10.1709 18.312 10.1709H21.688C21.8434 10.1709 21.9925 10.2326 22.1024 10.3425C22.2122 10.4524 22.274 10.6014 22.274 10.7568C22.274 10.9122 22.2122 11.0613 22.1024 11.1712C21.9925 11.281 21.8434 11.3428 21.688 11.3428ZM21.688 13.1843H18.312C18.1566 13.1843 18.0075 13.1225 17.8976 13.0126C17.7877 12.9028 17.726 12.7537 17.726 12.5983C17.726 12.4429 17.7877 12.2939 17.8976 12.184C18.0075 12.0741 18.1566 12.0124 18.312 12.0124H21.688C21.8434 12.0124 21.9925 12.0741 22.1024 12.184C22.2122 12.2939 22.274 12.4429 22.274 12.5983C22.274 12.7537 22.2122 12.9028 22.1024 13.0126C21.9925 13.1225 21.8434 13.1843 21.688 13.1843Z" fill="white"/>
<path id="Vector_6" d="M20.7673 17.5964C20.6881 17.5965 20.6097 17.5805 20.5368 17.5494C20.4639 17.5182 20.3982 17.4726 20.3435 17.4152L17.8883 14.8446C17.809 14.7616 17.7559 14.6572 17.7355 14.5443C17.715 14.4314 17.7282 14.315 17.7733 14.2095C17.8184 14.104 17.8935 14.0141 17.9892 13.9509C18.085 13.8877 18.1972 13.854 18.312 13.8539H18.9258C19.2588 13.8539 19.5781 13.7217 19.8136 13.4862C20.0491 13.2507 20.1814 12.9314 20.1814 12.5984C20.1814 12.2654 20.0491 11.946 19.8136 11.7105C19.5781 11.4751 19.2588 11.3428 18.9258 11.3428H18.312C18.1566 11.3428 18.0075 11.281 17.8976 11.1712C17.7877 11.0613 17.726 10.9122 17.726 10.7568C17.726 10.6014 17.7877 10.4524 17.8976 10.3425C18.0075 10.2326 18.1566 10.1709 18.312 10.1709H18.9258C19.5113 10.1709 20.0771 10.3825 20.5189 10.7667C20.9607 11.1509 21.2487 11.6818 21.33 12.2617C21.4112 12.8415 21.2801 13.4312 20.9609 13.922C20.6417 14.4128 20.1559 14.7717 19.5929 14.9326L21.191 16.6057C21.2703 16.6887 21.3234 16.7931 21.3438 16.906C21.3643 17.0189 21.3511 17.1353 21.306 17.2408C21.2609 17.3463 21.1858 17.4363 21.09 17.4995C20.9943 17.5627 20.8821 17.5964 20.7673 17.5964V17.5964Z" fill="white"/>
<path id="Vector_7" d="M30.0999 39.4138H9.90019C9.74629 39.4138 9.5939 39.3835 9.45172 39.3246C9.30953 39.2658 9.18034 39.1794 9.07151 39.0706L6.24237 36.2414C6.02263 36.0216 5.89917 35.7236 5.89917 35.4128V12.8379L20 19.8691L34.1009 12.8379V35.4128C34.1009 35.7236 33.9774 36.0216 33.7577 36.2414L30.9285 39.0706C30.8197 39.1794 30.6905 39.2658 30.5483 39.3246C30.4062 39.3835 30.2538 39.4138 30.0999 39.4138Z" fill="#8F85FF"/>
<path id="Vector_8" d="M30.5852 14.5909V35.4128C30.5852 35.7236 30.4618 36.0216 30.242 36.2414L27.4129 39.0706C27.3041 39.1794 27.1749 39.2658 27.0327 39.3246C26.8905 39.3835 26.7381 39.4138 26.5842 39.4138H30.0999C30.2537 39.4138 30.4061 39.3835 30.5483 39.3246C30.6905 39.2658 30.8197 39.1794 30.9285 39.0706L33.7577 36.2414C33.9774 36.0216 34.1009 35.7236 34.1009 35.4128V12.8379L30.5852 14.5909Z" fill="#7167E8"/>
<path id="Vector_9" d="M11.2951 36.8753H10.7092C10.6322 36.8753 10.556 36.8602 10.4849 36.8307C10.4138 36.8013 10.3492 36.7581 10.2948 36.7037L9.88053 36.2893C9.82518 36.2351 9.78112 36.1705 9.75091 36.0991C9.7207 36.0278 9.70493 35.9512 9.70453 35.8737C9.70412 35.7962 9.71908 35.7195 9.74855 35.6478C9.77801 35.5762 9.82139 35.5111 9.87617 35.4563C9.93096 35.4015 9.99606 35.3581 10.0677 35.3287C10.1394 35.2992 10.2162 35.2843 10.2936 35.2847C10.3711 35.2851 10.4477 35.3009 10.5191 35.3311C10.5904 35.3614 10.655 35.4054 10.7092 35.4608L10.9519 35.7035H11.2951C11.4505 35.7035 11.5996 35.7652 11.7095 35.8751C11.8193 35.985 11.8811 36.134 11.8811 36.2894C11.8811 36.4448 11.8193 36.5938 11.7095 36.7037C11.5996 36.8136 11.4505 36.8753 11.2951 36.8753ZM9.02405 34.4264C8.86865 34.4264 8.71961 34.3647 8.60973 34.2548C8.49984 34.1449 8.43811 33.9959 8.43811 33.8405V32.56C8.43811 32.4046 8.49984 32.2556 8.60973 32.1457C8.71961 32.0358 8.86865 31.9741 9.02405 31.9741C9.17945 31.9741 9.32848 32.0358 9.43837 32.1457C9.54825 32.2556 9.60999 32.4046 9.60999 32.56V33.8405C9.60999 33.9174 9.59483 33.9936 9.56538 34.0647C9.53594 34.1358 9.49278 34.2004 9.43837 34.2548C9.38396 34.3092 9.31937 34.3524 9.24828 34.3818C9.17719 34.4113 9.10099 34.4264 9.02405 34.4264ZM9.02405 30.5849C8.86865 30.5849 8.71961 30.5232 8.60973 30.4133C8.49984 30.3034 8.43811 30.1544 8.43811 29.999V28.7185C8.43811 28.5631 8.49984 28.4141 8.60973 28.3042C8.71961 28.1943 8.86865 28.1326 9.02405 28.1326C9.17945 28.1326 9.32848 28.1943 9.43837 28.3042C9.54825 28.4141 9.60999 28.5631 9.60999 28.7185V29.999C9.60999 30.076 9.59483 30.1521 9.56538 30.2232C9.53594 30.2943 9.49278 30.3589 9.43837 30.4133C9.38396 30.4677 9.31937 30.5109 9.24828 30.5403C9.17719 30.5698 9.10099 30.5849 9.02405 30.5849ZM9.02405 26.7435C8.86865 26.7435 8.71961 26.6817 8.60973 26.5718C8.49984 26.462 8.43811 26.3129 8.43811 26.1575V24.8771C8.43811 24.7217 8.49984 24.5726 8.60973 24.4627C8.71961 24.3528 8.86865 24.2911 9.02405 24.2911C9.17945 24.2911 9.32848 24.3528 9.43837 24.4627C9.54825 24.5726 9.60999 24.7217 9.60999 24.8771V26.1575C9.60999 26.2345 9.59483 26.3107 9.56538 26.3817C9.53594 26.4528 9.49278 26.5174 9.43837 26.5718C9.38396 26.6262 9.31937 26.6694 9.24828 26.6989C9.17719 26.7283 9.10099 26.7435 9.02405 26.7435ZM9.02405 22.9021C8.86865 22.9021 8.71961 22.8403 8.60973 22.7304C8.49984 22.6206 8.43811 22.4715 8.43811 22.3161V21.0356C8.43811 20.8802 8.49984 20.7312 8.60973 20.6213C8.71961 20.5114 8.86865 20.4497 9.02405 20.4497C9.17945 20.4497 9.32848 20.5114 9.43837 20.6213C9.54825 20.7312 9.60999 20.8802 9.60999 21.0356V22.3161C9.60999 22.3931 9.59483 22.4693 9.56538 22.5403C9.53594 22.6114 9.49278 22.676 9.43837 22.7304C9.38396 22.7848 9.31937 22.828 9.24828 22.8575C9.17719 22.8869 9.10099 22.9021 9.02405 22.9021ZM9.02405 19.0606C8.86865 19.0606 8.71961 18.9989 8.60973 18.889C8.49984 18.7791 8.43811 18.6301 8.43811 18.4747V17.8888C8.43809 17.7889 8.46359 17.6908 8.51217 17.6035C8.56075 17.5163 8.63081 17.443 8.7157 17.3904C8.80059 17.3379 8.89749 17.3079 8.99722 17.3033C9.09695 17.2988 9.19619 17.3198 9.28553 17.3643L9.80991 17.6258C9.92809 17.6847 10.0229 17.7818 10.079 17.9014C10.1351 18.021 10.1491 18.1559 10.1189 18.2845C10.0886 18.413 10.0158 18.5276 9.91233 18.6096C9.80881 18.6916 9.68064 18.7362 9.54858 18.7363C9.49994 18.8337 9.4251 18.9157 9.33246 18.973C9.23982 19.0303 9.13305 19.0606 9.02413 19.0606L9.02405 19.0606ZM17.6703 22.7863C17.5797 22.7862 17.4904 22.7651 17.4094 22.7246L16.5069 22.2746C16.438 22.2402 16.3766 22.1927 16.3261 22.1346C16.2756 22.0765 16.2371 22.0091 16.2126 21.9361C16.1882 21.8631 16.1784 21.7861 16.1838 21.7093C16.1892 21.6325 16.2096 21.5576 16.2439 21.4887C16.2783 21.4199 16.3258 21.3584 16.3839 21.308C16.442 21.2575 16.5094 21.2189 16.5824 21.1945C16.6554 21.1701 16.7324 21.1603 16.8092 21.1657C16.8859 21.171 16.9609 21.1915 17.0298 21.2258L17.9323 21.6758C18.0505 21.7347 18.1453 21.8319 18.2014 21.9515C18.2575 22.0712 18.2715 22.2062 18.2411 22.3348C18.2108 22.4634 18.1379 22.5779 18.0343 22.6599C17.9307 22.7418 17.8024 22.7864 17.6703 22.7863ZM14.9629 21.4363C14.8723 21.4362 14.7829 21.4151 14.7019 21.3746L13.7994 20.9246C13.7306 20.8902 13.6692 20.8427 13.6187 20.7846C13.5682 20.7265 13.5296 20.6591 13.5052 20.5861C13.4808 20.5131 13.471 20.4361 13.4764 20.3593C13.4817 20.2825 13.5022 20.2076 13.5365 20.1387C13.5708 20.0699 13.6184 20.0084 13.6765 19.958C13.7345 19.9075 13.802 19.8689 13.875 19.8445C13.9479 19.8201 14.025 19.8103 14.1018 19.8157C14.1785 19.821 14.2535 19.8415 14.3223 19.8758L15.2248 20.3258C15.343 20.3848 15.4378 20.4819 15.4939 20.6015C15.5499 20.7211 15.5639 20.8562 15.5336 20.9847C15.5032 21.1133 15.4304 21.2278 15.3268 21.3098C15.2232 21.3917 15.095 21.4363 14.9629 21.4362V21.4363ZM12.2555 20.0863C12.1648 20.0862 12.0755 20.0651 11.9944 20.0246L11.0919 19.5746C10.9529 19.5052 10.847 19.3835 10.7977 19.2361C10.7484 19.0887 10.7597 18.9278 10.829 18.7887C10.8983 18.6497 11.0201 18.5438 11.1675 18.4945C11.3148 18.4452 11.4758 18.4565 11.6148 18.5258L12.5173 18.9758C12.6356 19.0347 12.7304 19.1319 12.7865 19.2515C12.8425 19.3711 12.8566 19.5062 12.8262 19.6348C12.7959 19.7633 12.723 19.8779 12.6194 19.9599C12.5158 20.0418 12.3876 20.0864 12.2555 20.0863ZM20 23.9477C19.9092 23.9477 19.8197 23.9266 19.7385 23.8861L19.2141 23.6246C19.1453 23.5903 19.0838 23.5427 19.0334 23.4846C18.9829 23.4266 18.9443 23.3591 18.9199 23.2861C18.8955 23.2132 18.8857 23.1361 18.8911 23.0593C18.8965 22.9826 18.9169 22.9076 18.9512 22.8388C18.9856 22.7699 19.0331 22.7085 19.0912 22.658C19.1493 22.6075 19.2167 22.569 19.2897 22.5446C19.3627 22.5202 19.4398 22.5104 19.5165 22.5157C19.5933 22.5211 19.6682 22.5415 19.7371 22.5759L20 22.707L20.2629 22.5759C20.3317 22.5415 20.4067 22.5211 20.4835 22.5157C20.5602 22.5104 20.6373 22.5202 20.7103 22.5446C20.7832 22.569 20.8507 22.6075 20.9088 22.658C20.9668 22.7085 21.0144 22.7699 21.0487 22.8388C21.0831 22.9076 21.1035 22.9826 21.1089 23.0593C21.1143 23.1361 21.1045 23.2132 21.08 23.2861C21.0556 23.3591 21.0171 23.4266 20.9666 23.4846C20.9161 23.5427 20.8547 23.5903 20.7858 23.6246L20.2615 23.8861C20.1803 23.9266 20.0907 23.9477 20 23.9477ZM22.3298 22.7863C22.1976 22.7864 22.0694 22.7419 21.9658 22.6599C21.8622 22.578 21.7893 22.4634 21.759 22.3348C21.7286 22.2063 21.7427 22.0712 21.7987 21.9516C21.8548 21.832 21.9496 21.7348 22.0679 21.6759L22.9704 21.2259C23.1094 21.1565 23.2704 21.1453 23.4177 21.1946C23.5651 21.2439 23.6869 21.3497 23.7562 21.4888C23.8255 21.6279 23.8368 21.7888 23.7875 21.9362C23.7382 22.0835 23.6323 22.2053 23.4933 22.2746L22.5908 22.7246C22.5098 22.7652 22.4203 22.7863 22.3298 22.7863ZM25.0373 21.4363C24.9051 21.4365 24.7768 21.392 24.6731 21.31C24.5695 21.2281 24.4966 21.1135 24.4662 20.9849C24.4359 20.8563 24.4499 20.7212 24.506 20.6015C24.5621 20.4819 24.657 20.3847 24.7753 20.3258L25.6776 19.8758C25.7465 19.8415 25.8215 19.821 25.8982 19.8157C25.975 19.8103 26.0521 19.8201 26.125 19.8445C26.198 19.8689 26.2655 19.9075 26.3236 19.958C26.3816 20.0084 26.4292 20.0699 26.4635 20.1387C26.4979 20.2076 26.5183 20.2826 26.5237 20.3593C26.5291 20.4361 26.5193 20.5132 26.4948 20.5861C26.4704 20.6591 26.4319 20.7266 26.3814 20.7846C26.3309 20.8427 26.2695 20.8903 26.2006 20.9246L25.2983 21.3746C25.2172 21.4152 25.1279 21.4363 25.0373 21.4363ZM27.7445 20.0863C27.6124 20.0864 27.4841 20.0418 27.3805 19.9599C27.2769 19.8779 27.204 19.7634 27.1737 19.6348C27.1433 19.5062 27.1573 19.3712 27.2134 19.2515C27.2695 19.1319 27.3643 19.0347 27.4826 18.9758L28.3851 18.5258C28.4539 18.4915 28.5289 18.471 28.6056 18.4657C28.6824 18.4603 28.7595 18.4701 28.8324 18.4945C28.9054 18.5189 28.9728 18.5575 29.0309 18.608C29.089 18.6584 29.1366 18.7199 29.1709 18.7887C29.2052 18.8576 29.2257 18.9325 29.231 19.0093C29.2364 19.0861 29.2266 19.1631 29.2022 19.2361C29.1778 19.3091 29.1392 19.3765 29.0887 19.4346C29.0382 19.4927 28.9768 19.5402 28.908 19.5746L28.0055 20.0246C27.9245 20.0651 27.8351 20.0862 27.7445 20.0863ZM30.9758 19.0606C30.8668 19.0606 30.7601 19.0303 30.6674 18.973C30.5748 18.9157 30.5 18.8337 30.4513 18.7363C30.3193 18.7362 30.1911 18.6916 30.0876 18.6096C29.984 18.5276 29.9113 18.413 29.881 18.2845C29.8508 18.1559 29.8648 18.021 29.9209 17.9014C29.977 17.7818 30.0718 17.6847 30.19 17.6258L30.7144 17.3643C30.8037 17.3198 30.9029 17.2988 31.0026 17.3034C31.1023 17.308 31.1992 17.3379 31.2841 17.3905C31.369 17.443 31.439 17.5163 31.4876 17.6035C31.5362 17.6907 31.5617 17.7889 31.5617 17.8887V18.4746C31.5617 18.63 31.5 18.7791 31.3901 18.889C31.2802 18.9988 31.1312 19.0606 30.9758 19.0606ZM30.9758 34.4264C30.8204 34.4264 30.6713 34.3647 30.5614 34.2548C30.4516 34.1449 30.3898 33.9959 30.3898 33.8405V32.56C30.3898 32.4046 30.4516 32.2556 30.5614 32.1457C30.6713 32.0358 30.8204 31.9741 30.9758 31.9741C31.1312 31.9741 31.2802 32.0358 31.3901 32.1457C31.5 32.2556 31.5617 32.4046 31.5617 32.56V33.8405C31.5617 33.9959 31.5 34.1449 31.3901 34.2548C31.2802 34.3647 31.1312 34.4264 30.9758 34.4264ZM30.9758 30.5849C30.8204 30.5849 30.6713 30.5232 30.5614 30.4133C30.4516 30.3034 30.3898 30.1544 30.3898 29.999V28.7185C30.3898 28.5631 30.4516 28.4141 30.5614 28.3042C30.6713 28.1943 30.8204 28.1326 30.9758 28.1326C31.1312 28.1326 31.2802 28.1943 31.3901 28.3042C31.5 28.4141 31.5617 28.5631 31.5617 28.7185V29.999C31.5617 30.1544 31.5 30.3034 31.3901 30.4133C31.2802 30.5232 31.1312 30.5849 30.9758 30.5849ZM30.9758 26.7435C30.8204 26.7435 30.6713 26.6817 30.5614 26.5718C30.4516 26.462 30.3898 26.3129 30.3898 26.1575V24.8771C30.3898 24.7217 30.4516 24.5726 30.5614 24.4627C30.6713 24.3528 30.8204 24.2911 30.9758 24.2911C31.1312 24.2911 31.2802 24.3528 31.3901 24.4627C31.5 24.5726 31.5617 24.7217 31.5617 24.8771V26.1575C31.5617 26.3129 31.5 26.462 31.3901 26.5718C31.2802 26.6817 31.1312 26.7435 30.9758 26.7435ZM30.9758 22.9021C30.8204 22.9021 30.6713 22.8403 30.5614 22.7304C30.4516 22.6206 30.3898 22.4715 30.3898 22.3161V21.0356C30.3898 20.8802 30.4516 20.7312 30.5614 20.6213C30.6713 20.5114 30.8204 20.4497 30.9758 20.4497C31.1312 20.4497 31.2802 20.5114 31.3901 20.6213C31.5 20.7312 31.5617 20.8802 31.5617 21.0356V22.3161C31.5617 22.4715 31.5 22.6206 31.3901 22.7304C31.2802 22.8403 31.1312 22.9021 30.9758 22.9021ZM29.2908 36.8753H28.7049C28.5495 36.8753 28.4005 36.8136 28.2906 36.7037C28.1807 36.5938 28.119 36.4448 28.119 36.2894C28.119 36.134 28.1807 35.985 28.2906 35.8751C28.4005 35.7652 28.5495 35.7035 28.7049 35.7035H29.0481L29.2908 35.4607C29.3453 35.4063 29.4099 35.3631 29.4809 35.3337C29.552 35.3043 29.6282 35.2891 29.7052 35.2891C29.7821 35.2891 29.8583 35.3043 29.9294 35.3337C30.0005 35.3631 30.0651 35.4063 30.1195 35.4607C30.1739 35.5151 30.2171 35.5797 30.2465 35.6508C30.276 35.7219 30.2911 35.7981 30.2911 35.8751C30.2911 35.952 30.276 36.0282 30.2465 36.0993C30.2171 36.1704 30.1739 36.235 30.1195 36.2894L29.7052 36.7038C29.5953 36.8136 29.4463 36.8753 29.2908 36.8753ZM26.2178 36.8753H24.9742C24.8188 36.8753 24.6698 36.8136 24.5599 36.7037C24.45 36.5938 24.3883 36.4448 24.3883 36.2894C24.3883 36.134 24.45 35.985 24.5599 35.8751C24.6698 35.7652 24.8188 35.7035 24.9742 35.7035H26.2178C26.3732 35.7035 26.5222 35.7652 26.6321 35.8751C26.742 35.985 26.8037 36.134 26.8037 36.2894C26.8037 36.4448 26.742 36.5938 26.6321 36.7037C26.5222 36.8136 26.3732 36.8753 26.2178 36.8753ZM22.4871 36.8753H21.2436C21.0882 36.8753 20.9391 36.8136 20.8293 36.7037C20.7194 36.5938 20.6576 36.4448 20.6576 36.2894C20.6576 36.134 20.7194 35.985 20.8293 35.8751C20.9391 35.7652 21.0882 35.7035 21.2436 35.7035H22.4871C22.6425 35.7035 22.7915 35.7652 22.9014 35.8751C23.0113 35.985 23.073 36.134 23.073 36.2894C23.073 36.4448 23.0113 36.5938 22.9014 36.7037C22.7915 36.8136 22.6425 36.8753 22.4871 36.8753ZM18.7565 36.8753H17.5129C17.3575 36.8753 17.2084 36.8136 17.0986 36.7037C16.9887 36.5938 16.9269 36.4448 16.9269 36.2894C16.9269 36.134 16.9887 35.985 17.0986 35.8751C17.2084 35.7652 17.3575 35.7035 17.5129 35.7035H18.7565C18.9119 35.7035 19.0609 35.7652 19.1708 35.8751C19.2807 35.985 19.3424 36.134 19.3424 36.2894C19.3424 36.4448 19.2807 36.5938 19.1708 36.7037C19.0609 36.8136 18.9119 36.8753 18.7565 36.8753ZM15.0258 36.8753H13.7823C13.6269 36.8753 13.4778 36.8136 13.3679 36.7037C13.258 36.5938 13.1963 36.4448 13.1963 36.2894C13.1963 36.134 13.258 35.985 13.3679 35.8751C13.4778 35.7652 13.6269 35.7035 13.7823 35.7035H15.0258C15.1812 35.7035 15.3302 35.7652 15.4401 35.8751C15.55 35.985 15.6117 36.134 15.6117 36.2894C15.6117 36.4448 15.55 36.5938 15.4401 36.7037C15.3302 36.8136 15.1812 36.8753 15.0258 36.8753Z" fill="#5F58AD"/>
<path id="Vector_10" d="M20 32.9072C21.7043 32.9072 23.0859 31.5256 23.0859 29.8213C23.0859 28.117 21.7043 26.7354 20 26.7354C18.2957 26.7354 16.9141 28.117 16.9141 29.8213C16.9141 31.5256 18.2957 32.9072 20 32.9072Z" fill="white"/>
<path id="Vector_11" d="M20 26.7354C19.6836 26.7352 19.369 26.7837 19.0673 26.8793C19.6921 27.0775 20.2376 27.4695 20.6248 27.9984C21.0119 28.5274 21.2206 29.1659 21.2206 29.8214C21.2206 30.4769 21.0119 31.1154 20.6248 31.6444C20.2376 32.1734 19.6921 32.5653 19.0673 32.7636C19.4917 32.898 19.9401 32.9391 20.3818 32.8839C20.8235 32.8288 21.2481 32.6787 21.6263 32.4441C22.0046 32.2094 22.3276 31.8957 22.5733 31.5245C22.8189 31.1533 22.9813 30.7333 23.0494 30.2934C23.1174 29.8535 23.0895 29.4041 22.9676 28.976C22.8456 28.5479 22.6325 28.1512 22.3428 27.8132C22.0531 27.4752 21.6938 27.2039 21.2894 27.0178C20.885 26.8318 20.4451 26.7354 20 26.7354V26.7354Z" fill="#E5E4E4"/>
</g>
</svg>
