<svg width="40" height="40" viewBox="0 0 40 40" fill="none" xmlns="http://www.w3.org/2000/svg">
<g id="premium">
<path id="Vector" d="M27.6273 7.59082H12.3726L9.54608 15.0369H30.4539L27.6273 7.59082Z" fill="#F7B01A"/>
<path id="Vector_2" d="M27.5469 7.59023L31.6422 4.70664L27.5469 1.82227H12.3726L8.37341 4.70664L12.3726 7.59023H27.5469Z" fill="#FDD660"/>
<path id="Vector_3" d="M8.37344 4.70703L0.46875 11.3805L9.54609 15.0367L12.3727 7.59063L8.37344 4.70703ZM31.6266 4.70703L39.5312 11.3805L30.4539 15.0367L27.6273 7.59063L31.6266 4.70703Z" fill="#FFCC0C"/>
<path id="Vector_4" d="M0.46875 11.3809L20.0078 38.1777L9.54609 15.0371L0.46875 11.3809Z" fill="#F7B01A"/>
<path id="Vector_5" d="M39.5312 11.3809L19.9922 38.1777L30.4539 15.0371L39.5312 11.3809Z" fill="#F7B01A"/>
<path id="Vector_6" d="M9.54608 15.0371L20.0078 38.1777L30.4539 15.0371H9.54608ZM19.9922 24.7793L19.0515 22.0691L16.3406 21.1277L19.0515 20.1871L19.993 17.4762L20.9336 20.1871L23.6445 21.1277L20.9336 22.0691L19.9922 24.7793Z" fill="#FFCC0C"/>
</g>
</svg>
