<?xml version="1.0" encoding="UTF-8"?>
<svg id="Layer_1" data-name="Layer 1" xmlns="http://www.w3.org/2000/svg" version="1.1" viewBox="0 0 72 72">
  <defs>
    <style>
      .cls-1 {
        fill: #215c75;
      }

      .cls-1, .cls-2, .cls-3, .cls-4, .cls-5, .cls-6, .cls-7, .cls-8, .cls-9 {
        stroke-width: 0px;
      }

      .cls-2 {
        fill: #95d9ee;
      }

      .cls-3 {
        fill: #e1e9f3;
      }

      .cls-4 {
        fill: #e4bb32;
      }

      .cls-5 {
        fill: #eb6474;
      }

      .cls-6 {
        fill: #cadbea;
      }

      .cls-7 {
        fill: #144659;
      }

      .cls-8 {
        fill: #abbbcc;
      }

      .cls-9 {
        fill: #fff;
      }
    </style>
  </defs>
  <rect class="cls-9" y="0" width="72" height="72" rx="8" ry="8"/>
  <g>
    <path class="cls-1" d="M11.86,49.53V12.83c0-1.06.87-1.92,1.93-1.93h44.41c1.06,0,1.92.87,1.93,1.93v36.7H11.86Z"/>
    <path class="cls-6" d="M64,57.24v2.9c0,.53-.43.96-.96.96H8.96c-.53,0-.96-.43-.96-.96v-2.9l3.86-9.65h48.28l3.86,9.65Z"/>
    <path class="cls-8" d="M64,57.24v2.9c0,.53-.43.96-.96.96H8.96c-.53,0-.96-.43-.96-.96v-2.9h56Z"/>
    <path class="cls-7" d="M50.74,14.77h4.57c.53,0,.96.43.96.96v27.03c0,.53-.43.96-.96.96H16.68c-.53,0-.96-.43-.96-.96V15.73c0-.53.43-.96.96-.96h34.06Z"/>
    <path class="cls-3" d="M25.37,57.24l1.69-4.22c.15-.36.5-.61.89-.61h16.07c.4,0,.75.24.89.61l1.69,4.22h-21.23Z"/>
    <g>
      <path class="cls-9" d="M21.51,24.42c.53,0,.96-.43.96-.96,0-.26-.1-.5-.28-.68l-1.24-1.24,1.24-1.24c.37-.38.36-1-.02-1.37-.37-.36-.96-.36-1.35,0l-1.92,1.92c-.37.37-.37.98,0,1.37l1.93,1.93c.18.17.42.27.68.27h0Z"/>
      <path class="cls-9" d="M30.48,24.14c.37.37.98.37,1.37,0l1.93-1.93c.37-.37.37-.98,0-1.37l-1.93-1.93c-.38-.37-1-.36-1.37.02-.36.37-.36.96,0,1.35l1.24,1.24-1.24,1.24c-.37.4-.37,1.01,0,1.38Z"/>
      <path class="cls-9" d="M24.94,24.32c.48.24,1.05.05,1.29-.43h0l1.93-3.86c.24-.48.05-1.05-.43-1.3-.48-.24-1.05-.05-1.3.43l-1.93,3.86c-.23.49-.03,1.06.44,1.3h0Z"/>
    </g>
    <path class="cls-4" d="M24.41,27.32c0-.53-.43-.96-.96-.96h-2.9c-.53,0-.96.43-.96.96s.43.96.96.96h2.9c.53,0,.96-.43.96-.96Z"/>
    <path class="cls-5" d="M26.34,27.32c0,.53.43.96.96.96h7.73c.53,0,.96-.43.96-.96s-.43-.96-.96-.96h-7.73c-.53,0-.96.43-.96.96Z"/>
    <path class="cls-4" d="M31.16,31.17c0-.53-.43-.96-.96-.96h-7.73c-.53,0-.96.43-.96.96s.43.96.96.96h7.73c.53.01.96-.43.96-.96Z"/>
    <path class="cls-4" d="M22.47,34.07c-.53,0-.96.43-.96.96s.43.96.96.96h4.83c.53,0,.96-.43.96-.96s-.43-.96-.96-.96h-4.83Z"/>
    <path class="cls-2" d="M46.62,36.01h2.9c.53,0,.96-.43.96-.96s-.43-.96-.96-.96h-2.9c-.53,0-.96.43-.96.96s.43.96.96.96Z"/>
    <path class="cls-5" d="M30.2,35.04c0,.53.43.96.96.96h11.59c.53,0,.96-.43.96-.96s-.43-.96-.96-.96h-11.59c-.53-.01-.96.43-.96.96Z"/>
    <path class="cls-4" d="M24.41,37.94h-1.93c-.53,0-.96.43-.96.96s.43.96.96.96h1.93c.53,0,.96-.43.96-.96s-.43-.96-.96-.96Z"/>
    <path class="cls-2" d="M49.52,37.94h-10.63c-.53,0-.96.43-.96.96s.43.96.96.96h10.63c.53,0,.96-.43.96-.96s-.43-.96-.96-.96Z"/>
    <path class="cls-5" d="M35.03,37.94h-6.76c-.53,0-.96.43-.96.96s.43.96.96.96h6.76c.53,0,.96-.43.96-.96s-.43-.96-.96-.96Z"/>
  </g>
</svg>