<?xml version="1.0" encoding="UTF-8"?>
<svg id="Layer_1" data-name="Layer 1" xmlns="http://www.w3.org/2000/svg" viewBox="0 0 72 72">
  <defs>
    <style>
      .cls-1 {
        fill: #006df0;
      }

      .cls-1, .cls-2, .cls-3, .cls-4, .cls-5, .cls-6 {
        stroke-width: 0px;
      }

      .cls-2 {
        fill: #ffbcab;
      }

      .cls-3 {
        fill: #d80027;
      }

      .cls-4 {
        fill: #f1f2f2;
      }

      .cls-5 {
        fill: #ffac96;
      }

      .cls-6 {
        fill: #fff;
      }
    </style>
  </defs>
  <rect class="cls-6" width="72" height="72" rx="8" ry="8"/>
  <g id="healthcare-covid19-coronavirus-hand-hearth">
    <g>
      <path class="cls-5" d="M21.38,34.36l-4.07-11.71c-.38-1.4-1.77-2.38-3.2-2.08-1.28.27-2.14,1.4-2.14,2.63,0,.23.03.47.09.7l4.18,12.92,5.13-2.45Z"/>
      <path class="cls-5" d="M50.62,34.36l4.07-11.71c.38-1.4,1.77-2.38,3.2-2.08,1.28.27,2.14,1.4,2.14,2.63,0,.23-.03.47-.09.7l-4.18,12.92-5.13-2.45Z"/>
      <path class="cls-2" d="M29.76,39.22l-7.93-4.65c-1.15-.66-2.58-.38-3.41.61l-2.9-8.94c-.38-1.4-1.77-2.38-3.2-2.08-1.28.27-2.14,1.4-2.14,2.63,0,.23.03.47.09.7l3.9,14.57c.18.68.56,1.29,1.09,1.76l6.07,5.39c.76.68,1.2,1.65,1.2,2.68v2.87h10.77v-9.35c0-2.55-1.35-4.91-3.55-6.2Z"/>
      <path class="cls-2" d="M59.68,24.15c-1.43-.3-2.82.68-3.2,2.08l-2.9,8.94c-.82-.99-2.26-1.27-3.41-.61l-7.93,4.65c-2.2,1.29-3.55,3.65-3.55,6.2v9.35h10.77v-2.87c0-1.03.44-2,1.2-2.68l6.07-5.39c.53-.47.91-1.08,1.09-1.76l3.9-14.57c.06-.23.09-.47.09-.7,0-1.23-.85-2.36-2.14-2.63Z"/>
      <polygon class="cls-1" points="37.8 54.76 37.8 61.94 50.36 61.94 50.36 54.76 49.46 54.76 38.69 54.76 37.8 54.76"/>
      <polygon class="cls-1" points="34.2 54.76 33.31 54.76 22.54 54.76 21.64 54.76 21.64 61.94 34.2 61.94 34.2 54.76"/>
      <path class="cls-3" d="M48.06,23.85l-.64.64-11.43,11.43-11.43-11.43-.64-.64c-3.15-3.15-3.15-8.27,0-11.42,1.58-1.58,3.64-2.37,5.72-2.37s4.14.79,5.71,2.37l.64.64.64-.64c1.57-1.58,3.64-2.37,5.71-2.37s4.14.79,5.72,2.37c3.15,3.15,3.15,8.27,0,11.42Z"/>
      <polygon class="cls-4" points="37.8 26.93 37.8 23.34 41.39 23.34 41.39 19.75 37.8 19.75 37.8 16.16 34.2 16.16 34.2 19.75 30.61 19.75 30.61 23.34 34.2 23.34 34.2 26.93 37.8 26.93"/>
      <path class="cls-5" d="M52.87,37.43l-6,3.32c-.36.21-.49.65-.31,1.02h0c.2.4.7.55,1.08.33l5.22-2.88c1.15-.66,1.62-2.04,1.18-3.24-.2.59-.6,1.11-1.18,1.44Z"/>
      <path class="cls-5" d="M19.13,37.43l6,3.32c.36.21.49.65.31,1.02h0c-.2.4-.7.55-1.08.33l-5.22-2.88c-1.15-.66-1.62-2.04-1.18-3.24.2.59.6,1.11,1.18,1.44Z"/>
    </g>
  </g>
</svg>