<?xml version="1.0" encoding="UTF-8"?>
<svg id="Layer_1" data-name="Layer 1" xmlns="http://www.w3.org/2000/svg" version="1.1" viewBox="0 0 72 72">
  <defs>
    <style>
      .cls-1 {
        fill: #818285;
      }

      .cls-1, .cls-2, .cls-3, .cls-4, .cls-5, .cls-6, .cls-7, .cls-8, .cls-9, .cls-10, .cls-11, .cls-12, .cls-13, .cls-14 {
        stroke-width: 0px;
      }

      .cls-2 {
        fill: #5b85c4;
      }

      .cls-3 {
        fill: #b3b1ae;
      }

      .cls-4 {
        fill: #7754a2;
      }

      .cls-5 {
        fill: #ffca1c;
      }

      .cls-6 {
        fill: #3c68b1;
      }

      .cls-7 {
        fill: #6e97cf;
      }

      .cls-8 {
        fill: #855ca6;
      }

      .cls-9 {
        fill: #595a5c;
      }

      .cls-10 {
        fill: #4a79bc;
      }

      .cls-11 {
        fill: #939598;
      }

      .cls-12 {
        fill: #424143;
      }

      .cls-13 {
        fill: #68489d;
      }

      .cls-14 {
        fill: #fff;
      }
    </style>
  </defs>
  <rect class="cls-14" y="0" width="72" height="72" rx="8" ry="8"/>
  <g>
    <g>
      <path class="cls-11" d="M29.86,51.24h12.27v6.87h-12.27v-6.87Z"/>
      <path class="cls-1" d="M41.05,51.24v4.71c0,.6-.48,1.08-1.08,1.08h-10.11v1.08h12.27v-6.87h-1.08Z"/>
      <path class="cls-9" d="M24.61,62.42h22.78c.8,0,1.33-.85.97-1.57l-.78-1.55c-.37-.73-1.11-1.19-1.93-1.19h-19.29c-.82,0-1.57.46-1.93,1.19l-.78,1.55c-.36.72.16,1.57.97,1.57h0Z"/>
      <path class="cls-12" d="M48.35,60.86l-.78-1.55c-.23-.45-.6-.8-1.04-1l.74,1.47c.36.72-.16,1.57-.97,1.57h-22.78c0,.57.45,1.08,1.08,1.08h22.78c.8,0,1.33-.85.97-1.57Z"/>
      <path class="cls-9" d="M12.93,51.24h46.14c1.19,0,2.16-.97,2.16-2.16v-31.64c0-1.19-.97-2.16-2.16-2.16H12.93c-1.19,0-2.16.97-2.16,2.16v31.64c0,1.19.97,2.16,2.16,2.16Z"/>
      <path class="cls-12" d="M59.96,15.48c.12.27.19.57.19.89v31.64c0,1.19-.97,2.16-2.16,2.16H11.85c-.32,0-.62-.07-.89-.19.34.75,1.09,1.27,1.97,1.27h46.14c1.19,0,2.16-.97,2.16-2.16v-31.64c0-.88-.52-1.63-1.27-1.97h0Z"/>
      <path class="cls-3" d="M38.09,49.21h-4.18c-.48,0-.87-.39-.87-.87s.39-.87.87-.87h4.18c.48,0,.87.39.87.87s-.39.87-.87.87Z"/>
      <path class="cls-2" d="M13.69,45.35h44.62c.6,0,1.08-.48,1.08-1.08v-25.9c0-.6-.48-1.08-1.08-1.08H13.69c-.6,0-1.08.48-1.08,1.08v25.9c0,.6.48,1.08,1.08,1.08h0Z"/>
      <path class="cls-7" d="M13.91,38.31c-.24,0-.43-.19-.43-.43v-12.54c0-.24.19-.43.43-.43s.43.19.43.43v12.54c0,.24-.19.43-.43.43ZM13.91,24.04c-.24,0-.43-.19-.43-.43v-.11c0-.24.19-.43.43-.43s.43.19.43.43v.11c0,.24-.19.43-.43.43Z"/>
      <path class="cls-10" d="M58.31,17.29h-1.08v24.82c0,.6-.48,1.08-1.08,1.08H12.61v1.08c0,.6.48,1.08,1.08,1.08h44.62c.6,0,1.08-.48,1.08-1.08v-25.9c0-.6-.48-1.08-1.08-1.08Z"/>
      <path class="cls-6" d="M58.31,17.29v25.9c0,.6-.48,1.08-1.08,1.08H12.61c0,.6.48,1.08,1.08,1.08h44.62c.6,0,1.08-.48,1.08-1.08v-25.9c0-.6-.48-1.08-1.08-1.08Z"/>
    </g>
    <g>
      <path class="cls-5" d="M45.56,33.15h-19.98c-.24,0-.43-.19-.43-.43s.19-.43.43-.43h19.98c.24,0,.43.19.43.43s-.19.43-.43.43Z"/>
      <path class="cls-5" d="M23.21,33.15h-5.85c-.24,0-.43-.19-.43-.43s.19-.43.43-.43h5.85c.24,0,.43.19.43.43s-.19.43-.43.43Z"/>
      <path class="cls-5" d="M54.63,35.91h-6.04c-.24,0-.43-.19-.43-.43s.19-.43.43-.43h6.04c.24,0,.43.19.43.43s-.19.43-.43.43Z"/>
      <path class="cls-5" d="M46.56,35.91h-27.22c-.24,0-.43-.19-.43-.43s.19-.43.43-.43h27.22c.24,0,.43.19.43.43s-.19.43-.43.43Z"/>
      <path class="cls-5" d="M54.63,38.67h-28.03c-.24,0-.43-.19-.43-.43s.19-.43.43-.43h28.03c.24,0,.43.19.43.43s-.19.43-.43.43h0Z"/>
      <path class="cls-5" d="M24.2,38.67h-4.86c-.24,0-.43-.19-.43-.43s.19-.43.43-.43h4.86c.24,0,.43.19.43.43s-.19.43-.43.43Z"/>
      <path class="cls-5" d="M45.56,41.43h-21.36c-.24,0-.43-.19-.43-.43s.19-.43.43-.43h21.36c.24,0,.43.19.43.43s-.19.43-.43.43h0Z"/>
      <path class="cls-5" d="M22.62,41.43h-5.26c-.24,0-.43-.19-.43-.43s.19-.43.43-.43h5.26c.24,0,.43.19.43.43s-.19.43-.43.43Z"/>
    </g>
    <g>
      <g>
        <path class="cls-14" d="M22.16,27.49c-.07,0-.14-.02-.2-.05l-4.79-2.55c-.14-.08-.23-.22-.23-.38s.09-.31.23-.38l4.79-2.55c.21-.11.47-.03.58.18.11.21.03.47-.18.58l-4.07,2.16,4.07,2.16c.21.11.29.37.18.58-.08.15-.23.23-.38.23Z"/>
        <path class="cls-14" d="M27.71,27.49c-.15,0-.3-.08-.38-.23-.11-.21-.03-.47.18-.58l4.07-2.16-4.07-2.16c-.21-.11-.29-.37-.18-.58.11-.21.37-.29.58-.18l4.79,2.55c.14.08.23.22.23.38s-.09.31-.23.38l-4.79,2.55c-.06.03-.13.05-.2.05h0Z"/>
      </g>
      <path class="cls-14" d="M23.41,28.91c-.05,0-.1,0-.16-.03-.22-.09-.33-.34-.25-.56l3.05-7.92c.09-.22.34-.33.56-.25.22.09.33.34.25.56l-3.05,7.92c-.07.17-.23.28-.4.28Z"/>
    </g>
    <g>
      <g>
        <path class="cls-8" d="M46.11,24.31c-4.72,0-8.55-1.18-8.55-2.64v4.75c0,1.46,3.83,2.64,8.55,2.64s8.55-1.18,8.55-2.64v-4.75c0,1.46-3.83,2.64-8.55,2.64Z"/>
        <path class="cls-4" d="M53.82,22.82v2.78c0,1.46-3.83,2.64-8.55,2.64-3.34,0-6.23-.59-7.63-1.45.55,1.29,4.13,2.29,8.47,2.29,4.72,0,8.55-1.18,8.55-2.64v-4.75c0,.41-.3.79-.83,1.14Z"/>
        <circle class="cls-5" cx="40.12" cy="25.65" r=".76"/>
        <circle class="cls-5" cx="42.94" cy="26.39" r=".76"/>
      </g>
      <g>
        <path class="cls-8" d="M46.11,19.57c-4.72,0-8.55-1.18-8.55-2.64v4.75c0,1.46,3.83,2.64,8.55,2.64s8.55-1.18,8.55-2.64v-4.75c0,1.46-3.83,2.64-8.55,2.64Z"/>
        <path class="cls-4" d="M53.82,18.07v2.78c0,1.46-3.83,2.64-8.55,2.64-3.34,0-6.23-.59-7.63-1.45.55,1.29,4.13,2.29,8.47,2.29,4.72,0,8.55-1.18,8.55-2.64v-4.75c0,.41-.3.79-.83,1.14Z"/>
        <circle class="cls-5" cx="40.12" cy="20.9" r=".76"/>
        <circle class="cls-5" cx="42.94" cy="21.64" r=".76"/>
      </g>
      <g>
        <path class="cls-8" d="M46.11,14.85c-4.72,0-8.55-1.18-8.55-2.64v4.72c0,1.46,3.83,2.64,8.55,2.64s8.55-1.18,8.55-2.64v-4.72c0,1.46-3.83,2.64-8.55,2.64Z"/>
        <path class="cls-4" d="M53.82,13.35v2.75c0,1.46-3.83,2.64-8.55,2.64-3.34,0-6.23-.59-7.63-1.45.55,1.29,4.13,2.29,8.47,2.29,4.72,0,8.55-1.18,8.55-2.64v-4.72c0,.41-.3.79-.83,1.14Z"/>
        <circle class="cls-5" cx="40.12" cy="16.15" r=".76"/>
        <circle class="cls-5" cx="42.94" cy="16.89" r=".76"/>
      </g>
      <ellipse class="cls-4" cx="46.11" cy="12.21" rx="8.55" ry="2.64"/>
      <path class="cls-13" d="M53.74,11.03c.05.11.08.23.08.35,0,1.46-3.83,2.64-8.55,2.64-3.34,0-6.23-.59-7.63-1.45.55,1.29,4.13,2.29,8.47,2.29,4.72,0,8.55-1.18,8.55-2.64,0-.43-.33-.83-.91-1.18Z"/>
    </g>
  </g>
</svg>