<svg width="102" height="25" viewBox="0 0 102 25" fill="none" xmlns="http://www.w3.org/2000/svg">
<g clip-path="url(#clip0_611_14456)">
<path d="M89.351 8.12228C89.9164 8.12228 90.3817 7.82833 90.4446 7.44857L91.0027 1.13613C91.0027 0.512205 90.2718 0 89.3528 0C88.4347 0 87.7045 0.512202 87.7045 1.13624L88.2623 7.44857C88.3237 7.82822 88.789 8.12228 89.3529 8.12228H89.351ZM85.9394 10.0939C86.223 9.60494 86.2016 9.05535 85.9027 8.81118L80.7142 5.17159C80.1747 4.85918 79.3659 5.23522 78.9068 6.03134C78.4462 6.82645 78.5279 7.71447 79.0659 8.027L84.811 10.702C85.1702 10.8351 85.6599 10.5789 85.9412 10.0902L85.9394 10.0939ZM92.7657 10.0906C93.0489 10.5792 93.5361 10.8356 93.8955 10.7023L99.6407 8.02734C100.182 7.71492 100.259 6.82679 99.8027 6.03168C99.3414 5.23635 98.531 4.85951 97.9931 5.17193L92.8042 8.81152C92.5076 9.05535 92.4855 9.60539 92.7675 10.0943L92.7657 10.0906ZM89.351 16.0075C89.9164 16.0075 90.3817 16.2989 90.4446 16.679L91.0027 22.9906C91.0027 23.6164 90.2718 24.1275 89.3528 24.1275C88.4347 24.1275 87.7045 23.6164 87.7045 22.9906L88.2623 16.679C88.3237 16.2989 88.789 16.0075 89.3529 16.0075H89.351ZM92.7657 14.0354C93.0489 13.5453 93.5361 13.2913 93.8955 13.426L99.6407 16.0992C100.182 16.4119 100.259 17.3008 99.8027 18.0966C99.3414 18.8894 98.531 19.2672 97.9931 18.9552L92.8042 15.319C92.5076 15.0733 92.4855 14.5229 92.7675 14.0343H92.7653M85.9394 14.0347C86.223 14.5229 86.2016 15.0733 85.9027 15.3195L80.7142 18.9556C80.1747 19.2675 79.3659 18.8897 78.9068 18.097C78.4462 17.3012 78.5279 16.4122 79.0659 16.0995L84.811 13.4263C85.1702 13.2916 85.6599 13.5457 85.9412 14.0358H85.9394" fill="#FDBB30"/>
<path d="M56.6237 15.3074C56.6237 15.5011 56.6065 15.7009 56.5534 15.8763C56.3334 16.6051 55.5788 17.2214 54.6348 17.2214C53.8477 17.2214 53.2225 16.7743 53.2225 15.8299C53.2225 14.3846 54.8133 13.9855 56.6242 13.9955L56.6237 15.3072V15.3074ZM59.464 12.7887C59.464 10.4055 58.4457 8.30848 55.0049 8.30848C53.2386 8.30848 51.8368 8.80458 51.0717 9.24673L51.6321 11.1627C52.3314 10.7212 53.4459 10.3557 54.5006 10.3557C56.2459 10.3509 56.5317 11.3441 56.5317 11.9797V12.1302C52.7272 12.1246 50.3223 13.4419 50.3223 16.1254C50.3223 17.7652 51.5472 19.301 53.6764 19.301C54.9847 19.301 56.0805 18.7788 56.7363 17.9415H56.8011C56.8011 17.9415 57.235 19.7594 59.6306 19.0639C59.5056 18.3078 59.4645 17.5008 59.4645 16.5303L59.4642 12.7887M0.186523 5.06295C0.186523 5.06295 2.67265 15.25 3.06964 16.9033C3.53274 18.8331 4.36738 19.5435 6.77264 19.0639L8.3249 12.7483C8.71852 11.1788 8.98194 10.0597 9.23556 8.4648H9.27971C9.45776 10.0766 9.71038 11.1836 10.0343 12.7534C10.0343 12.7534 10.6659 15.6208 10.9899 17.1263C11.3142 18.6314 12.217 19.5806 14.5733 19.0639L18.2722 5.0625H15.2866L14.0232 11.1163C13.6836 12.8777 13.3756 14.2556 13.138 15.8666H13.0958C12.8799 14.2698 12.605 12.948 12.26 11.2315L10.9457 5.0625H7.83443L6.42779 11.0759C6.02967 12.9038 5.65633 14.3791 5.41983 15.9366H5.37681C5.13399 14.47 4.81077 12.615 4.46097 10.8465C4.46097 10.8465 3.62588 6.54516 3.33216 5.0625L0.186523 5.06295ZM23.9197 15.3074C23.9197 15.5011 23.9025 15.7009 23.8487 15.8763C23.6291 16.6051 22.874 17.2214 21.9301 17.2214C21.1428 17.2214 20.5186 16.7743 20.5186 15.8299C20.5186 14.3846 22.1089 13.9855 23.9201 13.9955L23.9197 15.3072V15.3074ZM26.7597 12.7887C26.7597 10.4055 25.7414 8.30848 22.3013 8.30848C20.5346 8.30848 19.1316 8.80458 18.3669 9.24673L18.9267 11.1627C19.6258 10.7212 20.7403 10.3557 21.7954 10.3557C23.5419 10.3509 23.8277 11.3441 23.8277 11.9797V12.1302C20.0217 12.1246 17.6179 13.4419 17.6179 16.1254C17.6179 17.7652 18.8421 19.301 20.9697 19.301C22.2799 19.301 23.375 18.7788 24.0316 17.9415H24.0955C24.0955 17.9415 24.5307 19.7594 26.9257 19.0639C26.8005 18.3078 26.7597 17.5008 26.7597 16.5303V12.7887ZM31.4995 16.0918V5.06295H28.6558V19.0643H31.4995V16.0918ZM68.7003 5.06295V15.3915C68.7003 16.8161 68.9689 17.8132 69.5415 18.4234C70.0434 18.9569 70.8679 19.3022 71.8567 19.3022C72.6978 19.3022 73.5246 19.1417 73.9149 18.997L73.8781 16.7754C73.5878 16.8463 73.2545 16.9038 72.7981 16.9038C71.8291 16.9038 71.5051 16.283 71.5051 15.0046V11.0527H73.9814V8.37346H71.5051V5.06295H68.7003ZM61.3603 8.546V19.0643H64.2937V13.6787C64.2937 13.3876 64.3113 13.134 64.3573 12.902C64.5744 11.7733 65.437 11.0527 66.6762 11.0527C67.0159 11.0527 67.259 11.0897 67.5225 11.1271V8.37346C67.3014 8.32943 67.1514 8.30882 66.8764 8.30882C65.7817 8.30882 64.5362 9.01518 64.0135 10.5304H63.9342V8.546H61.3603ZM33.4907 8.546V19.0643H36.3487V12.8963C36.3487 12.6069 36.3827 12.3008 36.4829 12.0355C36.7198 11.4145 37.2977 10.6872 38.22 10.6872C39.3738 10.6872 39.9126 11.6621 39.9126 13.0692V19.0635H42.7683V12.8204C42.7683 12.5443 42.8061 12.2114 42.8877 11.9679C43.1222 11.2611 43.7448 10.6864 44.6023 10.6864C45.7714 10.6864 46.3326 11.6442 46.3326 13.3004V19.0632H49.1902V12.8679C49.1902 9.60104 47.5313 8.30781 45.6584 8.30781C44.8298 8.30781 44.175 8.51537 43.5828 8.87824C43.0856 9.18457 42.6396 9.61861 42.2505 10.1892H42.2083C41.7566 9.05561 40.6941 8.30837 39.3094 8.30837C37.5305 8.30837 36.731 9.21013 36.2461 9.97483H36.2035V8.54566H33.4907" fill="white"/>
<path d="M101.082 18.5539H101.125C101.182 18.5539 101.219 18.5302 101.219 18.4951C101.219 18.4551 101.184 18.4334 101.131 18.4334C101.113 18.4334 101.094 18.4371 101.082 18.4371V18.5549V18.5538L101.082 18.5539ZM101.075 18.8375H100.923V18.3425C100.958 18.3357 101.038 18.3237 101.141 18.3237C101.253 18.3237 101.303 18.3395 101.34 18.3642C101.371 18.3859 101.393 18.4228 101.393 18.4727C101.393 18.5235 101.346 18.5665 101.278 18.5853V18.5916C101.334 18.6066 101.364 18.6474 101.38 18.7189C101.396 18.7903 101.405 18.8195 101.415 18.8378H101.243C101.228 18.8195 101.219 18.7757 101.209 18.732C101.199 18.6818 101.175 18.6567 101.125 18.6567H101.075L101.075 18.8375ZM101.138 18.1812C100.92 18.1812 100.755 18.359 100.755 18.5855C100.755 18.8063 100.92 18.9864 101.144 18.9864C101.369 18.9901 101.534 18.8064 101.534 18.5819C101.534 18.3585 101.369 18.1812 101.141 18.1812H101.138ZM101.148 18.0469C101.452 18.0469 101.694 18.2863 101.694 18.5818C101.694 18.8808 101.452 19.1206 101.144 19.1206C100.835 19.1206 100.59 18.8805 100.59 18.5819C100.59 18.2863 100.836 18.047 101.144 18.047H101.147" fill="#FDBB30"/>
</g>
<defs>
<clipPath id="clip0_611_14456">
<rect width="101.546" height="24.1274" fill="white" transform="translate(0.166992)"/>
</clipPath>
</defs>
</svg>
